<?xml version="1.0" encoding="UTF-8" standalone="no"?>
<svg
   width="1280"
   height="540"
   viewBox="0 0 1280 540"
   fill="none"
   version="1.1"
   id="svg186"
   sodipodi:docname="figura interativa.svg"
   inkscape:version="1.1.1 (1:1.1+202109281949+c3084ef5ed)"
   xmlns:inkscape="http://www.inkscape.org/namespaces/inkscape"
   xmlns:sodipodi="http://sodipodi.sourceforge.net/DTD/sodipodi-0.dtd"
   xmlns="http://www.w3.org/2000/svg"
   xmlns:svg="http://www.w3.org/2000/svg">
  <defs
     id="defs190" />
  <sodipodi:namedview
     id="namedview188"
     pagecolor="#ffffff"
     bordercolor="#666666"
     borderopacity="1.0"
     inkscape:pageshadow="2"
     inkscape:pageopacity="0.0"
     inkscape:pagecheckerboard="0"
     showgrid="false"
     inkscape:zoom="1.0825497"
     inkscape:cx="476.19063"
     inkscape:cy="97.455114"
     inkscape:window-width="1366"
     inkscape:window-height="703"
     inkscape:window-x="0"
     inkscape:window-y="0"
     inkscape:window-maximized="1"
     inkscape:current-layer="svg186"
     width="1280px"
     showguides="false" />
  <text
     fill="#000000"
     xml:space="preserve"
     style="line-height:0;letter-spacing:0px;word-spacing:0px;white-space:pre"
     font-family="Roboto"
     font-size="20px"
     letter-spacing="0em"
     id="text40"
     x="-56.096802"
     y="-140.67172">
      <tspan
   sodipodi:role="line"
   x="-56.096802"
   y="-135.67172"
   id="tspan118514" />
   </text>
  <text
     fill="#000000"
     xml:space="preserve"
     style="line-height:1;white-space:pre"
     font-family="Roboto"
     font-size="20px"
     letter-spacing="0em"
     id="text50"
     x="-56.096802"
     y="-140.67172">
      <tspan
   sodipodi:role="line"
   x="-56.096802"
   y="-125.67172"
   id="tspan31654" />
   </text>
  <text
     fill="#000000"
     xml:space="preserve"
     style="white-space:pre"
     font-family="Roboto"
     font-size="20px"
     letter-spacing="0em"
     id="text60"
     x="-56.096802"
     y="-140.67172" />
  <path
     d="m 385,341 v -1 h -2 v 1 z m -1,35 5.774,-10 h -11.548 z m -1,-35 v 26 h 2 v -26 z"
     fill="#0044f3"
     id="path62" />
  <g
     id="g201118">
    <path
       id="path195317"
       style="fill:#0044f3;fill-opacity:1"
       d="m 534,504.86328 v 4.77344 H 127 v 2 h 407 v 4.77344 l 10,-5.77344 z"
       sodipodi:nodetypes="cccccccc" />
    <path
       d="m 127,251 v 260.63672 h 2 V 251 Z"
       id="path195315"
       style="fill:#0044f3;fill-opacity:1"
       sodipodi:nodetypes="ccccc" />
  </g>
  <path
     d="m 129,251 v -1 h -2 v 1 z"
     id="path64"
     style="fill:#000000" />
  <path
     d="m 385,241 v -1 h -2 v 1 z m -1,35 5.774,-10 h -11.548 z m -1,-35 v 26 h 2 v -26 z"
     fill="#0044f3"
     id="path66" />
  <path
     d="m 641,241 v -1 h -2 v 1 z m -1,35 5.774,-10 h -11.548 z m -1,-35 v 26 h 2 v -26 z"
     fill="#0044f3"
     id="path68" />
  <path
     d="m 640.9995,371 v -1 h -2 v 1 z m -1,103 5.774,-10 h -11.547 z m -1,-103 v 94 h 2 v -94 z"
     fill="#0044f3"
     id="path72"
     sodipodi:nodetypes="cccccccccccccc" />
  <path
     d="m 890.6562,254.98728 0.658,-0.753 -1.505,-1.317 -0.659,0.752 z m -189.753,215.341 10.93,-3.724 -8.69,-7.604 z m 188.247,-216.659 -183.073,209.227 1.505,1.317 183.074,-209.226 z"
     fill="#0044f3"
     id="path74" />
  <path
     d="m 1153,291 v -1 h -2 v 1 z m -1,35 5.77,-10 h -11.54 z m -1,-35 v 26 h 2 v -26 z"
     fill="#0044f3"
     id="path80" />
  <g
     id="g190495"
     transform="translate(0,13.907013)">
    <rect
       style="fill:none;stroke-width:9.99997;stroke-linecap:round;stroke-linejoin:round"
       id="rect190490"
       width="200"
       height="40"
       x="284"
       y="186.09299" />
  </g>
  <g
     id="g190809"
     transform="translate(0,39.840607)">
    <rect
       style="fill:none;stroke-width:10;stroke-linecap:round;stroke-linejoin:round"
       id="rect190595-5"
       width="150"
       height="40"
       x="309"
       y="360.15939" />
  </g>
  <g
     id="g179469"
     transform="translate(0,13.667755)">
    <rect
       style="fill:none;stroke-width:10;stroke-linecap:round;stroke-linejoin:round"
       id="rect179121-3"
       width="150"
       height="40"
       x="565"
       y="186.33224" />
  </g>
  <g
     id="g207772"
     transform="translate(0,41.511505)">
    <rect
       style="fill:none;stroke-width:9.99998;stroke-linecap:round;stroke-linejoin:round"
       id="rect207737-2"
       width="120"
       height="40"
       x="1092"
       y="208.48849" />
  </g>
  <g
     id="g208005"
     transform="translate(0,55.347443)">
    <rect
       style="fill:none;stroke-width:9.99995;stroke-linecap:round;stroke-linejoin:round"
       id="rect207737-2-9"
       width="100"
       height="40"
       x="1102"
       y="294.65256" />
  </g>
  <path
     d="m 129,151 v -1 h -2 v 1 z m -1,35 5.774,-10 h -11.548 z m -1,-35 v 26 h 2 v -26 z"
     fill="#0044f3"
     id="path152" />
  <path
     d="m 385,141 v -1 h -2 v 1 z m -1,35 5.774,-10 h -11.548 z m -1,-35 v 26 h 2 v -26 z"
     fill="#0044f3"
     id="path156" />
  <path
     d="m 641,141 v -1 h -2 v 1 z m -1,35 5.774,-10 h -11.548 z m -1,-35 v 26 h 2 v -26 z"
     fill="#0044f3"
     id="path160" />
  <path
     d="m 890.9032,151 v -1 h -2 v 1 z m -1,35 5.774,-10 h -11.548 z m -1,-35 v 26 h 2 v -26 z"
     fill="#0044f3"
     id="path164" />
  <path
     d="m 1153,191 v -1 h -2 v 1 z m -1,35 5.77,-10 h -11.54 z m -1,-35 v 26 h 2 v -26 z"
     fill="#0044f3"
     id="path168" />
  <g
     id="g179683"
     transform="translate(0,11.294861)">
    <rect
       style="fill:none;stroke-width:10;stroke-linecap:round;stroke-linejoin:round"
       id="rect179121-3-6"
       width="200"
       height="50"
       x="540"
       y="288.70514" />
    <text
       xml:space="preserve"
       style="font-size:20px;line-height:1.25;font-family:'Bebas Neue';-inkscape-font-specification:'Bebas Neue';letter-spacing:0px"
       x="640.01465"
       y="308.60748"
       id="text136841"><tspan
         sodipodi:role="line"
         x="640.01465"
         y="308.60748"
         id="tspan136843"
         style="font-style:normal;font-variant:normal;font-weight:normal;font-stretch:normal;font-size:20px;font-family:Roboto;-inkscape-font-specification:Roboto;text-align:center;text-anchor:middle;fill:#000000" /></text>
    <path
       id="path24-7"
       style="color:#000000;fill:#000000;stroke-linecap:round;stroke-linejoin:round;-inkscape-stroke:none"
       d="m 555.98485,305.70512 a 1,1 0 0 0 -1,1 v 11.58594 l -5.29296,-5.29297 a 1,1 0 0 0 -0.70704,-0.29297 1,1 0 0 0 -0.70703,0.29297 1,1 0 0 0 0,1.41407 l 7,7 a 1.0001,1.0001 0 0 0 0.0625,0.0469 1,1 0 0 0 0.12891,0.0918 1.0001,1.0001 0 0 0 0.13476,0.0684 1,1 0 0 0 0.14844,0.0488 1.0001,1.0001 0 0 0 0.1582,0.0254 1,1 0 0 0 0.0742,0.0117 1,1 0 0 0 0.0742,-0.0117 1.0001,1.0001 0 0 0 0.15822,-0.0254 1,1 0 0 0 0.14843,-0.0488 1.0001,1.0001 0 0 0 0.13477,-0.0684 1,1 0 0 0 0.12891,-0.0918 1.0001,1.0001 0 0 0 0.0625,-0.0469 l 7,-7 a 1,1 0 0 0 0,-1.41407 1,1 0 0 0 -1.41408,0 l -5.29296,5.29297 v -11.58594 a 1,1 0 0 0 -1,-1 z" />
  </g>
  <text
     fill="#000000"
     xml:space="preserve"
     style="white-space:pre;fill:#000000"
     font-family="Roboto"
     font-size="20px"
     letter-spacing="0em"
     id="text14"
     x="-2.4218748"
     y="-137.91608" />
  <text
     xml:space="preserve"
     style="font-size:40px;line-height:1.25;font-family:'Bebas Neue';-inkscape-font-specification:'Bebas Neue';letter-spacing:0px;fill:#666666"
     x="55.578125"
     y="65"
     id="text19162"><tspan
       sodipodi:role="line"
       id="tspan19160"
       x="55.578125"
       y="65" /><tspan
       sodipodi:role="line"
       x="55.578125"
       y="115"
       id="tspan19164"
       style="font-style:normal;font-variant:normal;font-weight:normal;font-stretch:normal;font-size:20px;font-family:Roboto;-inkscape-font-specification:Roboto;fill:#000000">Rigidez articular</tspan></text>
  <path
     style="color:#000000;fill:#0044f3;stroke-linecap:square;-inkscape-stroke:none"
     d="m 127,50 v 2 h 1 1024 1 v -2 h -1 -1024 z"
     id="line148"
     sodipodi:nodetypes="ccccccccc" />
  <path
     d="m 129,51 v -1 h -2 v 1 z m -1,35 5.774,-10 h -11.548 z m -1,-35 v 26 h 2 V 51 Z"
     fill="#0044f3"
     id="path150" />
  <path
     d="m 385,51 v -1 h -2 v 1 z m -1,35 5.774,-10 h -11.548 z m -1,-35 v 26 h 2 V 51 Z"
     fill="#0044f3"
     id="path154" />
  <path
     d="m 641,21 v -1 h -2 v 1 z m -1,60 5.774,-10 h -11.548 z m -1,-60 v 51 h 2 V 21 Z"
     fill="#0044f3"
     id="path158" />
  <path
     d="m 890.9032,51 v -1 h -2 v 1 z m -1,35 5.774,-10 h -11.548 z m -1,-35 v 26 h 2 V 51 Z"
     fill="#0044f3"
     id="path162" />
  <path
     d="m 1153,51 v -1 h -2 v 1 z m -1,35 5.77,-10 h -11.54 z m -1,-35 v 26 h 2 V 51 Z"
     fill="#0044f3"
     id="path166" />
  <g
     id="g176034"
     transform="translate(0,-9.90234)">
    <text
       xml:space="preserve"
       style="font-size:20px;line-height:1.25;font-family:'Bebas Neue';-inkscape-font-specification:'Bebas Neue';letter-spacing:0px"
       x="895.98535"
       y="124.90234"
       id="text56858"><tspan
         sodipodi:role="line"
         x="895.98535"
         y="124.90234"
         id="tspan56864"
         style="font-style:normal;font-variant:normal;font-weight:normal;font-stretch:normal;font-size:20px;font-family:Roboto;-inkscape-font-specification:Roboto;text-align:center;text-anchor:middle;fill:#000000">do condicionamento</tspan><tspan
         sodipodi:role="line"
         x="895.98535"
         y="149.90234"
         style="font-style:normal;font-variant:normal;font-weight:normal;font-stretch:normal;font-size:20px;font-family:Roboto;-inkscape-font-specification:Roboto;text-align:center;text-anchor:middle;fill:#000000"
         id="tspan4621">físico</tspan></text>
    <path
       id="path24-2"
       style="color:#000000;fill:#000000;stroke-linecap:round;stroke-linejoin:round;-inkscape-stroke:none"
       d="m 787.79985,109.90234 a 1,1 0 0 0 -1,1 v 11.58594 l -5.29296,-5.29297 a 1,1 0 0 0 -0.70704,-0.29297 1,1 0 0 0 -0.70703,0.29297 1,1 0 0 0 0,1.41407 l 7,7 a 1.0001,1.0001 0 0 0 0.0625,0.0469 1,1 0 0 0 0.12891,0.0918 1.0001,1.0001 0 0 0 0.13476,0.0684 1,1 0 0 0 0.14844,0.0488 1.0001,1.0001 0 0 0 0.1582,0.0254 1,1 0 0 0 0.0742,0.0117 1,1 0 0 0 0.0742,-0.0117 1.0001,1.0001 0 0 0 0.15821,-0.0254 1,1 0 0 0 0.14843,-0.0488 1.0001,1.0001 0 0 0 0.13477,-0.0684 1,1 0 0 0 0.12891,-0.0918 1.0001,1.0001 0 0 0 0.0625,-0.0469 l 7,-7 a 1,1 0 0 0 0,-1.41407 1,1 0 0 0 -1.41407,0 l -5.29297,5.29297 v -11.58594 a 1,1 0 0 0 -1,-1 z" />
  </g>
  <rect
     style="fill:#cccccc;fill-opacity:1;stroke:none;stroke-width:10;stroke-linecap:round;stroke-linejoin:round"
     id="rect193529"
     width="2"
     height="27"
     x="127"
     y="150" />
  <path
     d="m 1080.059,408.68069 0.966,-0.25882 -0.5177,-1.93186 -0.9659,0.25882 z m -323.84392,85.73845 11.15368,2.98906 -2.98884,-11.15451 z m 323.32632,-87.67031 -314.89181,84.37501 0.51764,1.93185 314.89177,-84.375 z"
     fill="#0044f3"
     id="path164-1"
     sodipodi:nodetypes="cccccccccccccc" />
  <g
     id="g214776"
     transform="translate(0,-58.264465)">
    <rect
       style="opacity:1;fill:none;fill-opacity:1;stroke:none;stroke-width:10;stroke-linecap:round;stroke-linejoin:round"
       id="rect214460"
       width="180"
       height="40"
       x="550"
       y="558.26447" />
    <text
       fill="#000000"
       xml:space="preserve"
       style="white-space:pre"
       font-family="Roboto"
       font-size="28px"
       font-weight="600"
       letter-spacing="0em"
       id="text6"
       x="-38.641624"
       y="-63.442261" />
  </g>
  <path
     d="m 460,438.26795 -0.86603,-0.5 -1,1.73205 L 459,440 Z m 88.70069,52.36606 -5.77326,-10.00043 -5.7735,10 z M 459,440 l 81.40646,47.00004 1,-1.73205 L 460,438.26795 Z"
     fill="#0044f3"
     id="path215086"
     sodipodi:nodetypes="cccccccccccccc" />
  <text
     fill="#000000"
     xml:space="preserve"
     style="white-space:pre;fill:#000000"
     font-family="Roboto"
     font-size="20px"
     letter-spacing="0em"
     id="text24380"
     x="-2.4218748"
     y="-39.005878" />
  <text
     xml:space="preserve"
     style="font-size:40px;line-height:1.25;font-family:'Bebas Neue';-inkscape-font-specification:'Bebas Neue';letter-spacing:0px;fill:#666666"
     x="111.67676"
     y="214.21875"
     id="text24386"><tspan
       sodipodi:role="line"
       x="111.67676"
       y="214.21875"
       id="tspan24384"
       style="font-style:normal;font-variant:normal;font-weight:normal;font-stretch:normal;font-size:20px;font-family:Roboto;-inkscape-font-specification:Roboto;fill:#000000">Dor</tspan></text>
  <text
     xml:space="preserve"
     style="font-size:20px;line-height:1.25;font-family:'Bebas Neue';-inkscape-font-specification:'Bebas Neue';letter-spacing:0px;fill:#000000"
     x="1152.3174"
     y="120.41992"
     id="text81625"><tspan
       sodipodi:role="line"
       x="1152.3174"
       y="120.41992"
       style="font-style:normal;font-variant:normal;font-weight:normal;font-stretch:normal;font-size:20px;font-family:Roboto;-inkscape-font-specification:Roboto;text-align:center;text-anchor:middle;fill:#000000"
       id="tspan88799" /></text>
  <g
     id="g187438"
     transform="translate(0,-5.41992)">
    <path
       id="path24-6"
       style="color:#000000;fill:#000000;stroke-linecap:round;stroke-linejoin:round;-inkscape-stroke:none"
       d="m 1076.4918,105.41992 a 1,1 0 0 0 -1,1 v 11.58594 l -5.2929,-5.29297 a 1,1 0 0 0 -0.7071,-0.29297 1,1 0 0 0 -0.707,0.29297 1,1 0 0 0 0,1.41407 l 7,7 a 1.0001,1.0001 0 0 0 0.062,0.0469 1,1 0 0 0 0.1289,0.0918 1.0001,1.0001 0 0 0 0.1348,0.0684 1,1 0 0 0 0.1484,0.0488 1.0001,1.0001 0 0 0 0.1582,0.0254 1,1 0 0 0 0.074,0.0117 1,1 0 0 0 0.074,-0.0117 1.0001,1.0001 0 0 0 0.1582,-0.0254 1,1 0 0 0 0.1484,-0.0488 1.0001,1.0001 0 0 0 0.1348,-0.0684 1,1 0 0 0 0.1289,-0.0918 1.0001,1.0001 0 0 0 0.062,-0.0469 l 7,-7 a 1,1 0 0 0 0,-1.41407 1,1 0 0 0 -1.4141,0 l -5.2929,5.29297 v -11.58594 a 1,1 0 0 0 -1,-1 z" />
    <text
       xml:space="preserve"
       style="font-size:20px;line-height:1.25;font-family:'Bebas Neue';-inkscape-font-specification:'Bebas Neue';letter-spacing:0px"
       x="1152.3174"
       y="120.41992"
       id="text35781"><tspan
         sodipodi:role="line"
         id="tspan35779"
         x="1152.3174"
         y="120.41992"
         style="font-style:normal;font-variant:normal;font-weight:normal;font-stretch:normal;font-size:20px;font-family:Roboto;-inkscape-font-specification:Roboto;text-align:center;text-anchor:middle;fill:#000000">tensão sobre</tspan><tspan
         sodipodi:role="line"
         x="1152.3174"
         y="145.41992"
         id="tspan35783"
         style="font-style:normal;font-variant:normal;font-weight:normal;font-stretch:normal;font-size:20px;font-family:Roboto;-inkscape-font-specification:Roboto;text-align:center;text-anchor:middle;fill:#000000">tendões e</tspan><tspan
         sodipodi:role="line"
         x="1152.3174"
         y="170.41992"
         style="font-style:normal;font-variant:normal;font-weight:normal;font-stretch:normal;font-size:20px;font-family:Roboto;-inkscape-font-specification:Roboto;text-align:center;text-anchor:middle;fill:#000000"
         id="tspan41215">ligamentos</tspan></text>
  </g>
  <text
     xml:space="preserve"
     style="font-size:40px;line-height:1.25;font-family:'Bebas Neue';-inkscape-font-specification:'Bebas Neue';letter-spacing:0px"
     x="654.75299"
     y="668.29059"
     id="text47622"><tspan
       sodipodi:role="line"
       id="tspan47620"
       x="654.75299"
       y="668.29059" /><tspan
       sodipodi:role="line"
       x="654.75299"
       y="718.29059"
       id="tspan47626"
       style="font-size:20px;fill:#000000" /></text>
  <text
     xml:space="preserve"
     style="font-size:26.6667px;line-height:1.25;font-family:'Bebas Neue';-inkscape-font-specification:'Bebas Neue';letter-spacing:0px"
     x="568.91266"
     y="520"
     id="text76262"><tspan
       sodipodi:role="line"
       id="tspan76260"
       x="568.91266"
       y="520"
       style="font-style:normal;font-variant:normal;font-weight:bold;font-stretch:normal;font-size:26.6667px;font-family:Roboto;-inkscape-font-specification:'Roboto Bold';fill:#000000">Imobilidade</tspan></text>
  <text
     xml:space="preserve"
     style="font-size:20px;line-height:1.25;font-family:'Bebas Neue';-inkscape-font-specification:'Bebas Neue';letter-spacing:0px"
     x="292.09082"
     y="215.20508"
     id="text100360"><tspan
       sodipodi:role="line"
       id="tspan100358"
       x="292.09082"
       y="215.20508"
       style="font-style:normal;font-variant:normal;font-weight:normal;font-stretch:normal;font-size:20px;font-family:Roboto;-inkscape-font-specification:Roboto;fill:#000000">Hipertrofia muscular</tspan></text>
  <g
     id="g139785">
    <path
       id="path24"
       style="color:#000000;fill:#000000;stroke-linecap:round;stroke-linejoin:round;-inkscape-stroke:none"
       d="m 550.93085,101.53123 a 1,1 0 0 0 -1,1 v 11.58594 l -5.29296,-5.29297 a 1,1 0 0 0 -0.70704,-0.29297 1,1 0 0 0 -0.70703,0.29297 1,1 0 0 0 0,1.41407 l 7,7 a 1.0001,1.0001 0 0 0 0.0625,0.0469 1,1 0 0 0 0.12891,0.0918 1.0001,1.0001 0 0 0 0.13476,0.0684 1,1 0 0 0 0.14844,0.0488 1.0001,1.0001 0 0 0 0.1582,0.0254 1,1 0 0 0 0.0742,0.0117 1,1 0 0 0 0.0742,-0.0117 1.0001,1.0001 0 0 0 0.15821,-0.0254 1,1 0 0 0 0.14843,-0.0488 1.0001,1.0001 0 0 0 0.13477,-0.0684 1,1 0 0 0 0.12891,-0.0918 1.0001,1.0001 0 0 0 0.0625,-0.0469 l 7,-7 a 1,1 0 0 0 0,-1.41407 1,1 0 0 0 -1.41407,0 l -5.29297,5.29297 v -11.58594 a 1,1 0 0 0 -1,-1 z" />
    <text
       xml:space="preserve"
       style="font-size:20px;line-height:1.25;font-family:'Bebas Neue';-inkscape-font-specification:'Bebas Neue';letter-spacing:0px"
       x="568.03259"
       y="115"
       id="text121716"><tspan
         sodipodi:role="line"
         id="tspan121714"
         x="568.03259"
         y="115"
         style="font-style:normal;font-variant:normal;font-weight:normal;font-stretch:normal;font-size:20px;font-family:Roboto;-inkscape-font-specification:Roboto;fill:#000000">capacidade vital</tspan></text>
  </g>
  <text
     xml:space="preserve"
     style="font-size:20px;line-height:1.25;font-family:'Bebas Neue';-inkscape-font-specification:'Bebas Neue';letter-spacing:0px"
     x="292.62793"
     y="315"
     id="text147293"><tspan
       sodipodi:role="line"
       id="tspan147291"
       x="292.62793"
       y="315"
       style="font-style:normal;font-variant:normal;font-weight:normal;font-stretch:normal;font-size:20px;font-family:Roboto;-inkscape-font-specification:Roboto;fill:#000000">Contratura muscular</tspan></text>
  <text
     xml:space="preserve"
     style="font-size:20px;line-height:1.25;font-family:'Bebas Neue';-inkscape-font-specification:'Bebas Neue';letter-spacing:0px"
     x="320.88965"
     y="415.20508"
     id="text155398"><tspan
       sodipodi:role="line"
       id="tspan155396"
       x="320.88965"
       y="415.20508"
       style="font-style:normal;font-variant:normal;font-weight:normal;font-stretch:normal;font-size:20px;font-family:Roboto;-inkscape-font-specification:Roboto;fill:#000000">Deformidades</tspan></text>
  <text
     xml:space="preserve"
     style="font-size:20px;line-height:1.25;font-family:'Bebas Neue';-inkscape-font-specification:'Bebas Neue';letter-spacing:0px"
     x="573.2959"
     y="215"
     id="text162667"><tspan
       sodipodi:role="line"
       id="tspan162665"
       x="573.2959"
       y="215"
       style="font-style:normal;font-variant:normal;font-weight:normal;font-stretch:normal;font-size:20px;font-family:Roboto;-inkscape-font-specification:Roboto;fill:#000000">Hipoventilação</tspan></text>
  <text
     xml:space="preserve"
     style="font-size:20px;line-height:1.25;font-family:'Bebas Neue';-inkscape-font-specification:'Bebas Neue';letter-spacing:0px"
     x="640.01465"
     y="315"
     id="text170590"><tspan
       sodipodi:role="line"
       id="tspan170588"
       x="640.01465"
       y="315"
       style="font-style:normal;font-variant:normal;font-weight:normal;font-stretch:normal;font-size:20px;font-family:Roboto;-inkscape-font-specification:Roboto;text-align:center;text-anchor:middle;fill:#000000">tolerância à </tspan><tspan
       sodipodi:role="line"
       x="640.01465"
       y="340"
       id="tspan170592"
       style="font-style:normal;font-variant:normal;font-weight:normal;font-stretch:normal;font-size:20px;font-family:Roboto;-inkscape-font-specification:Roboto;text-align:center;text-anchor:middle;fill:#000000">atividade física</tspan></text>
  <g
     id="g187137"
     transform="translate(0,-3.3049469)">
    <path
       id="path213491"
       style="color:#000000;fill:#000000;stroke-linecap:round;stroke-linejoin:round;-inkscape-stroke:none"
       d="m 844.71585,220.98758 a 1,1 0 0 1 -1,-1 v -11.58594 l -5.29296,5.29297 a 1,1 0 0 1 -0.70704,0.29297 1,1 0 0 1 -0.70703,-0.29297 1,1 0 0 1 0,-1.41407 l 7,-7 a 1.0001,1.0001 0 0 1 0.0625,-0.0469 1,1 0 0 1 0.12891,-0.0918 1.0001,1.0001 0 0 1 0.13476,-0.0684 1,1 0 0 1 0.14844,-0.0488 1.0001,1.0001 0 0 1 0.1582,-0.0254 1,1 0 0 1 0.0742,-0.0117 1,1 0 0 1 0.0742,0.0117 1.0001,1.0001 0 0 1 0.15821,0.0254 1,1 0 0 1 0.14843,0.0488 1.0001,1.0001 0 0 1 0.13477,0.0684 1,1 0 0 1 0.12891,0.0918 1.0001,1.0001 0 0 1 0.0625,0.0469 l 7,7 a 1,1 0 0 1 0,1.41407 1,1 0 0 1 -1.41407,0 l -5.29297,-5.29297 v 11.58594 a 1,1 0 0 1 -1,1 z" />
    <text
       xml:space="preserve"
       style="font-size:20px;line-height:1.25;font-family:'Bebas Neue';-inkscape-font-specification:'Bebas Neue';letter-spacing:0px"
       x="862.12976"
       y="218.51003"
       id="text185064"><tspan
         sodipodi:role="line"
         id="tspan185062"
         x="862.12976"
         y="218.51003"
         style="font-style:normal;font-variant:normal;font-weight:normal;font-stretch:normal;font-size:20px;font-family:Roboto;-inkscape-font-specification:Roboto;fill:#000000">fadiga</tspan></text>
  </g>
  <text
     xml:space="preserve"
     style="font-size:20px;line-height:1.25;font-family:'Bebas Neue';-inkscape-font-specification:'Bebas Neue';letter-spacing:0px"
     x="1094.7295"
     y="264.41406"
     id="text191398"><tspan
       sodipodi:role="line"
       id="tspan191396"
       x="1094.7295"
       y="264.41406"
       style="font-style:normal;font-variant:normal;font-weight:normal;font-stretch:normal;font-size:20px;font-family:Roboto;-inkscape-font-specification:Roboto;fill:#000000">Osteoporose</tspan></text>
  <text
     xml:space="preserve"
     style="font-size:20px;line-height:1.25;font-family:'Bebas Neue';-inkscape-font-specification:'Bebas Neue';letter-spacing:0px"
     x="1115.0762"
     y="364.21875"
     id="text200036"><tspan
       sodipodi:role="line"
       id="tspan200034"
       x="1115.0762"
       y="364.21875"
       style="font-style:normal;font-variant:normal;font-weight:normal;font-stretch:normal;font-size:20px;font-family:Roboto;-inkscape-font-specification:Roboto;fill:#000000">Fraturas</tspan></text>
  <g
     id="g215279">
    <path
       id="path24-3"
       style="color:#000000;fill:#000000;stroke-linecap:round;stroke-linejoin:round;-inkscape-stroke:none"
       d="m 299.39385,101.77048 a 1,1 0 0 0 -1,1 v 11.58594 l -5.29296,-5.29297 a 1,1 0 0 0 -0.70704,-0.29297 1,1 0 0 0 -0.70703,0.29297 1,1 0 0 0 0,1.41407 l 7,7 a 1.0001,1.0001 0 0 0 0.0625,0.0469 1,1 0 0 0 0.12891,0.0918 1.0001,1.0001 0 0 0 0.13476,0.0684 1,1 0 0 0 0.14844,0.0488 1.0001,1.0001 0 0 0 0.1582,0.0254 1,1 0 0 0 0.0742,0.0117 1,1 0 0 0 0.0742,-0.0117 1.0001,1.0001 0 0 0 0.15821,-0.0254 1,1 0 0 0 0.14843,-0.0488 1.0001,1.0001 0 0 0 0.13477,-0.0684 1,1 0 0 0 0.12891,-0.0918 1.0001,1.0001 0 0 0 0.0625,-0.0469 l 7,-7 a 1,1 0 0 0 0,-1.41407 1,1 0 0 0 -1.41407,0 l -5.29297,5.29297 v -11.58594 a 1,1 0 0 0 -1,-1 z" />
    <text
       xml:space="preserve"
       style="font-size:20px;line-height:1.25;font-family:'Bebas Neue';-inkscape-font-specification:'Bebas Neue';letter-spacing:0px"
       x="316.80807"
       y="115.20508"
       id="text212554"><tspan
         sodipodi:role="line"
         id="tspan212552"
         x="316.80807"
         y="115.20508"
         style="font-style:normal;font-variant:normal;font-weight:normal;font-stretch:normal;font-size:20px;font-family:Roboto;-inkscape-font-specification:Roboto;fill:#000000">força muscular</tspan></text>
  </g>
</svg>
