<?xml version="1.0" encoding="UTF-8" standalone="no"?>
<svg
   width="1280"
   height="640"
   viewBox="0 0 1280 640"
   fill="none"
   version="1.1"
   id="svg186"
   sodipodi:docname="figura interativa.svg"
   inkscape:version="1.1.1 (1:1.1+202109281949+c3084ef5ed)"
   xmlns:inkscape="http://www.inkscape.org/namespaces/inkscape"
   xmlns:sodipodi="http://sodipodi.sourceforge.net/DTD/sodipodi-0.dtd"
   xmlns="http://www.w3.org/2000/svg"
   xmlns:svg="http://www.w3.org/2000/svg">
  <defs
     id="defs190" />
  <sodipodi:namedview
     id="namedview188"
     pagecolor="#ffffff"
     bordercolor="#666666"
     borderopacity="1.0"
     inkscape:pageshadow="2"
     inkscape:pageopacity="0.0"
     inkscape:pagecheckerboard="0"
     showgrid="false"
     inkscape:zoom="0.38273911"
     inkscape:cx="785.13011"
     inkscape:cy="288.70841"
     inkscape:window-width="1366"
     inkscape:window-height="703"
     inkscape:window-x="0"
     inkscape:window-y="0"
     inkscape:window-maximized="1"
     inkscape:current-layer="svg186"
     width="1280px"
     showguides="false"
     height="600px" />
  <text
     fill="#000000"
     xml:space="preserve"
     style="white-space:pre"
     font-family="Roboto"
     font-size="20px"
     letter-spacing="0em"
     id="text60"
     x="-56.096802"
     y="-140.67172" />
  <path
     d="m 129,251 v -1 h -2 v 1 z"
     id="path64"
     style="fill:#000000" />
  <text
     fill="#000000"
     xml:space="preserve"
     style="white-space:pre;fill:#000000"
     font-family="Roboto"
     font-size="20px"
     letter-spacing="0em"
     id="text14"
     x="-2.4218748"
     y="-137.91608" />
  <text
     fill="#000000"
     xml:space="preserve"
     style="white-space:pre;fill:#000000"
     font-family="Roboto"
     font-size="20px"
     letter-spacing="0em"
     id="text24380"
     x="-2.4218748"
     y="-39.005878" />
  <text
     xml:space="preserve"
     style="font-size:20px;line-height:1.25;font-family:'Bebas Neue';-inkscape-font-specification:'Bebas Neue';letter-spacing:0px;fill:#000000"
     x="1152.3174"
     y="120.41992"
     id="text81625"><tspan
       sodipodi:role="line"
       x="1152.3174"
       y="120.41992"
       style="font-style:normal;font-variant:normal;font-weight:normal;font-stretch:normal;font-size:20px;font-family:Roboto;-inkscape-font-specification:Roboto;text-align:center;text-anchor:middle;fill:#000000"
       id="tspan88799" /></text>
  <text
     xml:space="preserve"
     style="font-size:40px;line-height:1.25;font-family:'Bebas Neue';-inkscape-font-specification:'Bebas Neue';letter-spacing:0px"
     x="654.75299"
     y="668.29059"
     id="text47622"><tspan
       sodipodi:role="line"
       id="tspan47620"
       x="654.75299"
       y="668.29059" /><tspan
       sodipodi:role="line"
       x="654.75299"
       y="718.29059"
       id="tspan47626"
       style="font-size:20px;fill:#000000" /></text>
  <text
     xml:space="preserve"
     style="font-size:26.6667px;line-height:1.25;font-family:'Bebas Neue';-inkscape-font-specification:'Bebas Neue';letter-spacing:0px"
     x="568.91266"
     y="620"
     id="text76262"><tspan
       sodipodi:role="line"
       id="tspan76260"
       x="568.91266"
       y="620"
       style="font-style:normal;font-variant:normal;font-weight:bold;font-stretch:normal;font-size:26.6667px;font-family:Roboto;-inkscape-font-specification:'Roboto Bold';fill:#000000">Imobilidade</tspan></text>
  <g
     id="hm"
     transform="translate(0,50)">
    <path
       d="m 385,141 v -1 h -2 v 1 z m -1,35 5.774,-10 h -11.548 z m -1,-35 v 26 h 2 v -26 z"
       fill="#0044f3"
       id="path156" />
    <text
       xml:space="preserve"
       style="font-size:20px;line-height:1.25;font-family:'Bebas Neue';-inkscape-font-specification:'Bebas Neue';letter-spacing:0px"
       x="336.54395"
       y="215.20508"
       id="text100360"><tspan
         sodipodi:role="line"
         id="tspan100358"
         x="336.54395"
         y="215.20508"
         style="font-style:normal;font-variant:normal;font-weight:normal;font-stretch:normal;font-size:20px;font-family:Roboto;-inkscape-font-specification:Roboto;fill:#000000">Hipertrofia</tspan><tspan
         sodipodi:role="line"
         x="336.54395"
         y="240.20508"
         style="font-style:normal;font-variant:normal;font-weight:normal;font-stretch:normal;font-size:20px;font-family:Roboto;-inkscape-font-specification:Roboto;fill:#000000"
         id="tspan56079">muscular</tspan></text>
  </g>
  <g
     id="cm"
     transform="translate(0,80)">
    <path
       d="m 385,241 v 0 h -2 v 0 z m -1,35 5.774,-10 h -11.548 z m -1,-35 v 26 h 2 v -26 z"
       fill="#0044f3"
       id="path66"
       sodipodi:nodetypes="cccccccccccccc" />
    <text
       xml:space="preserve"
       style="font-size:20px;line-height:1.25;font-family:'Bebas Neue';-inkscape-font-specification:'Bebas Neue';letter-spacing:0px"
       x="383.96582"
       y="315"
       id="text147293"><tspan
         sodipodi:role="line"
         id="tspan147291"
         x="383.96582"
         y="315"
         style="font-style:normal;font-variant:normal;font-weight:normal;font-stretch:normal;font-size:20px;font-family:Roboto;-inkscape-font-specification:Roboto;text-align:center;text-anchor:middle;fill:#000000">Contratura</tspan><tspan
         sodipodi:role="line"
         x="383.96582"
         y="340"
         style="font-style:normal;font-variant:normal;font-weight:normal;font-stretch:normal;font-size:20px;font-family:Roboto;-inkscape-font-specification:Roboto;text-align:center;text-anchor:middle;fill:#000000"
         id="tspan61891">muscular</tspan></text>
  </g>
  <g
     id="deform"
     transform="translate(0,110)">
    <path
       d="m 385,341 v -1 h -2 v 1 z m -1,35 5.774,-10 h -11.548 z m -1,-35 v 26 h 2 v -26 z"
       fill="#0044f3"
       id="path62" />
    <path
       d="m 460,415.5 -0.86603,-0.5 -1,1.73205 0.86603,0.5 z m 88.70069,52.36606 -5.77326,-10.00043 -5.7735,10 z M 459,417.23205 l 81.40646,47.00004 1,-1.73205 L 460,415.5 Z"
       fill="#0044f3"
       id="path215086"
       sodipodi:nodetypes="cccccccccccccc" />
    <text
       xml:space="preserve"
       style="font-size:20px;line-height:1.25;font-family:'Bebas Neue';-inkscape-font-specification:'Bebas Neue';letter-spacing:0px"
       x="320.88965"
       y="415.20508"
       id="text155398"><tspan
         sodipodi:role="line"
         id="tspan155396"
         x="320.88965"
         y="415.20508"
         style="font-style:normal;font-variant:normal;font-weight:normal;font-stretch:normal;font-size:20px;font-family:Roboto;-inkscape-font-specification:Roboto;fill:#000000">Deformidades</tspan></text>
  </g>
  <g
     id="hipovent"
     transform="translate(0,50)">
    <path
       d="m 641,141 v -1 h -2 v 1 z m -1,35 5.774,-10 h -11.548 z m -1,-35 v 26 h 2 v -26 z"
       fill="#0044f3"
       id="path160" />
    <text
       xml:space="preserve"
       style="font-size:20px;line-height:1.25;font-family:'Bebas Neue';-inkscape-font-specification:'Bebas Neue';letter-spacing:0px"
       x="573.2959"
       y="225.53223"
       id="text162667"><tspan
         sodipodi:role="line"
         id="tspan162665"
         x="573.2959"
         y="225.53223"
         style="font-style:normal;font-variant:normal;font-weight:normal;font-stretch:normal;font-size:20px;font-family:Roboto;-inkscape-font-specification:Roboto;fill:#000000">Hipoventilação</tspan></text>
  </g>
  <g
     id="taf"
     transform="translate(0,80)">
    <path
       d="m 640.9995,371 v -1 h -2 v 1 z m -1,103 5.774,-10 h -11.547 z m -1,-103 v 94 h 2 v -94 z"
       fill="#0044f3"
       id="path72"
       sodipodi:nodetypes="cccccccccccccc" />
    <path
       d="m 641,241 v -1 h -2 v 1 z m -1,35 5.774,-10 h -11.548 z m -1,-35 v 26 h 2 v -26 z"
       fill="#0044f3"
       id="path68" />
    <text
       xml:space="preserve"
       style="font-size:20px;line-height:1.25;font-family:'Bebas Neue';-inkscape-font-specification:'Bebas Neue';letter-spacing:0px"
       x="640.01465"
       y="315"
       id="text170590"><tspan
         sodipodi:role="line"
         id="tspan170588"
         x="640.01465"
         y="315"
         style="font-style:normal;font-variant:normal;font-weight:normal;font-stretch:normal;font-size:20px;font-family:Roboto;-inkscape-font-specification:Roboto;text-align:center;text-anchor:middle;fill:#000000">tolerância à </tspan><tspan
         sodipodi:role="line"
         x="640.01465"
         y="340"
         id="tspan170592"
         style="font-style:normal;font-variant:normal;font-weight:normal;font-stretch:normal;font-size:20px;font-family:Roboto;-inkscape-font-specification:Roboto;text-align:center;text-anchor:middle;fill:#000000">atividade física</tspan></text>
  </g>
  <g
     id="fadiga"
     transform="translate(0,40)">
    <path
       d="m 890.9032,151 v -1 h -2 v 1 z m -1,35 5.774,-10 h -11.548 z m -1,-35 v 26 h 2 v -26 z"
       fill="#0044f3"
       id="path164" />
    <g
       id="g187137"
       transform="translate(0,17.212631)">
      <path
         id="path213491"
         style="color:#000000;fill:#000000;stroke-linecap:round;stroke-linejoin:round;-inkscape-stroke:none"
         d="m 844.71585,220.98758 a 1,1 0 0 1 -1,-1 v -11.58594 l -5.29296,5.29297 a 1,1 0 0 1 -0.70704,0.29297 1,1 0 0 1 -0.70703,-0.29297 1,1 0 0 1 0,-1.41407 l 7,-7 a 1.0001,1.0001 0 0 1 0.0625,-0.0469 1,1 0 0 1 0.12891,-0.0918 1.0001,1.0001 0 0 1 0.13476,-0.0684 1,1 0 0 1 0.14844,-0.0488 1.0001,1.0001 0 0 1 0.1582,-0.0254 1,1 0 0 1 0.0742,-0.0117 1,1 0 0 1 0.0742,0.0117 1.0001,1.0001 0 0 1 0.15821,0.0254 1,1 0 0 1 0.14843,0.0488 1.0001,1.0001 0 0 1 0.13477,0.0684 1,1 0 0 1 0.12891,0.0918 1.0001,1.0001 0 0 1 0.0625,0.0469 l 7,7 a 1,1 0 0 1 0,1.41407 1,1 0 0 1 -1.41407,0 l -5.29297,-5.29297 v 11.58594 a 1,1 0 0 1 -1,1 z" />
      <text
         xml:space="preserve"
         style="font-size:20px;line-height:1.25;font-family:'Bebas Neue';-inkscape-font-specification:'Bebas Neue';letter-spacing:0px"
         x="862.12976"
         y="218.51003"
         id="text185064"><tspan
           sodipodi:role="line"
           id="tspan185062"
           x="862.12976"
           y="218.51003"
           style="font-style:normal;font-variant:normal;font-weight:normal;font-stretch:normal;font-size:20px;font-family:Roboto;-inkscape-font-specification:Roboto;fill:#000000">fadiga</tspan></text>
    </g>
    <path
       d="m 868.36633,281.86601 0.50001,-0.86602 -1.73207,-0.99999 -0.49999,0.86603 z M 725.00043,528.18303 735.00086,522.40978 725,516.63578 Z M 866.63429,280.86602 728.6344,519.88879 l 1.73207,1.00002 137.99986,-239.0228 z"
       fill="#0044f3"
       id="path160-3"
       sodipodi:nodetypes="cccccccccccccc" />
  </g>
  <g
     id="osteo">
    <path
       d="m 1153,191 v -1 h -2 v 1 z m -1,35 5.77,-10 h -11.54 z m -1,-35 v 26 h 2 v -26 z"
       fill="#0044f3"
       id="path168" />
    <text
       xml:space="preserve"
       style="font-size:20px;line-height:1.25;font-family:'Bebas Neue';-inkscape-font-specification:'Bebas Neue';letter-spacing:0px"
       x="1094.7295"
       y="275.37598"
       id="text191398"><tspan
         sodipodi:role="line"
         id="tspan191396"
         x="1094.7295"
         y="275.37598"
         style="font-style:normal;font-variant:normal;font-weight:normal;font-stretch:normal;font-size:20px;font-family:Roboto;-inkscape-font-specification:Roboto;fill:#000000">Osteoporose</tspan></text>
  </g>
  <g
     id="frat">
    <path
       d="m 1153,400 v 211.1302 h -2 V 400 Z"
       id="path195315-6"
       style="fill:#0044f3;fill-opacity:1"
       sodipodi:nodetypes="ccccc" />
    <path
       d="m 1153,291 v -1 h -2 v 1 z m -1,35 5.77,-10 h -11.54 z m -1,-35 v 26 h 2 v -26 z"
       fill="#0044f3"
       id="path80" />
    <text
       xml:space="preserve"
       style="font-size:20px;line-height:1.25;font-family:'Bebas Neue';-inkscape-font-specification:'Bebas Neue';letter-spacing:0px"
       x="1115.0762"
       y="364.21875"
       id="text200036"><tspan
         sodipodi:role="line"
         id="tspan200034"
         x="1115.0762"
         y="364.21875"
         style="font-style:normal;font-variant:normal;font-weight:normal;font-stretch:normal;font-size:20px;font-family:Roboto;-inkscape-font-specification:Roboto;fill:#000000">Fraturas</tspan></text>
    <path
       id="path195317-2"
       style="fill:#0044f3;fill-opacity:1"
       d="m 744,604.35676 v 4.77344 h 407 v 2 H 744 v 4.77344 l -10.00002,-5.77344 z"
       sodipodi:nodetypes="cccccccc" />
  </g>
  <g
     id="dor"
     transform="translate(0,40)">
    <path
       id="path195317"
       style="fill:#0044f3;fill-opacity:1"
       d="m 534,564.35676 v 4.77344 H 127 v 2 h 407 v 4.77344 l 10,-5.77344 z"
       sodipodi:nodetypes="cccccccc" />
    <path
       d="m 127,281 v 290.1302 h 2 V 281 Z"
       id="path195315"
       style="fill:#0044f3;fill-opacity:1"
       sodipodi:nodetypes="ccccc" />
    <text
       xml:space="preserve"
       style="font-size:40px;line-height:1.25;font-family:'Bebas Neue';-inkscape-font-specification:'Bebas Neue';letter-spacing:0px;fill:#666666"
       x="111.67676"
       y="237.21191"
       id="text24386"><tspan
         sodipodi:role="line"
         x="111.67676"
         y="237.21191"
         id="tspan24384"
         style="font-style:normal;font-variant:normal;font-weight:normal;font-stretch:normal;font-size:20px;font-family:Roboto;-inkscape-font-specification:Roboto;fill:#000000">Dor</tspan></text>
    <path
       d="m 129,151 v -1 h -2 v 1 z m -1,35 5.774,-10 h -11.548 z m -1,-35 v 26 h 2 v -26 z"
       fill="#0044f3"
       id="path152" />
  </g>
  <g
     id="linha1">
    <text
       xml:space="preserve"
       style="font-size:40px;line-height:1.25;font-family:'Bebas Neue';-inkscape-font-specification:'Bebas Neue';letter-spacing:0px;fill:#666666"
       x="55.578125"
       y="90"
       id="text19162"><tspan
         sodipodi:role="line"
         x="55.578125"
         y="90"
         style="font-style:normal;font-variant:normal;font-weight:normal;font-stretch:normal;font-size:20px;font-family:Roboto;-inkscape-font-specification:Roboto;fill:#000000"
         id="tspan13618" /></text>
    <g
       id="g372">
      <path
         style="color:#000000;fill:#0044f3;stroke-linecap:square;-inkscape-stroke:none"
         d="m 127,50 v 2 h 1 1024 1 v -2 h -1 -1024 z"
         id="line148"
         sodipodi:nodetypes="ccccccccc" />
      <path
         d="m 129,51 v -1 h -2 v 1 z m -1,35 5.774,-10 h -11.548 z m -1,-35 v 26 h 2 V 51 Z"
         fill="#0044f3"
         id="path150" />
      <path
         d="m 385,51 v -1 h -2 v 1 z m -1,35 5.774,-10 h -11.548 z m -1,-35 v 26 h 2 V 51 Z"
         fill="#0044f3"
         id="path154" />
      <path
         d="m 641,21 v -1 h -2 v 1 z m -1,60 5.774,-10 h -11.548 z m -1,-60 v 51 h 2 V 21 Z"
         fill="#0044f3"
         id="path158" />
      <path
         d="m 890.9032,51 v -1 h -2 v 1 z m -1,35 5.774,-10 h -11.548 z m -1,-35 v 26 h 2 V 51 Z"
         fill="#0044f3"
         id="path162" />
      <path
         d="m 1153,51 v -1 h -2 v 1 z m -1,35 5.77,-10 h -11.54 z m -1,-35 v 26 h 2 V 51 Z"
         fill="#0044f3"
         id="path166" />
    </g>
    <g
       id="g176034"
       transform="translate(0,4.5800809)">
      <text
         xml:space="preserve"
         style="font-size:20px;line-height:1.25;font-family:'Bebas Neue';-inkscape-font-specification:'Bebas Neue';letter-spacing:0px"
         x="895.98535"
         y="112.40234"
         id="text56858"><tspan
           sodipodi:role="line"
           x="895.98535"
           y="112.40234"
           id="tspan56864"
           style="font-style:normal;font-variant:normal;font-weight:normal;font-stretch:normal;font-size:20px;font-family:Roboto;-inkscape-font-specification:Roboto;text-align:center;text-anchor:middle;fill:#000000">do</tspan><tspan
           sodipodi:role="line"
           x="895.98535"
           y="137.40234"
           style="font-style:normal;font-variant:normal;font-weight:normal;font-stretch:normal;font-size:20px;font-family:Roboto;-inkscape-font-specification:Roboto;text-align:center;text-anchor:middle;fill:#000000"
           id="tspan65306">condicionamento</tspan><tspan
           sodipodi:role="line"
           x="895.98535"
           y="162.40234"
           style="font-style:normal;font-variant:normal;font-weight:normal;font-stretch:normal;font-size:20px;font-family:Roboto;-inkscape-font-specification:Roboto;text-align:center;text-anchor:middle;fill:#000000"
           id="tspan4621">físico</tspan></text>
      <path
         id="path24-2"
         style="color:#000000;fill:#000000;stroke-linecap:round;stroke-linejoin:round;-inkscape-stroke:none"
         d="m 801.58885,121.99998 a 1,1 0 0 0 -1,1 v 11.58594 l -5.29296,-5.29297 a 1,1 0 0 0 -0.70704,-0.29297 1,1 0 0 0 -0.70703,0.29297 1,1 0 0 0 0,1.41407 l 7,7 a 1.0001,1.0001 0 0 0 0.0625,0.0469 1,1 0 0 0 0.12891,0.0918 1.0001,1.0001 0 0 0 0.13476,0.0684 1,1 0 0 0 0.14844,0.0488 1.0001,1.0001 0 0 0 0.1582,0.0254 1,1 0 0 0 0.0742,0.0117 1,1 0 0 0 0.0742,-0.0117 1.0001,1.0001 0 0 0 0.15821,-0.0254 1,1 0 0 0 0.14843,-0.0488 1.0001,1.0001 0 0 0 0.13477,-0.0684 1,1 0 0 0 0.12891,-0.0918 1.0001,1.0001 0 0 0 0.0625,-0.0469 l 7,-7 a 1,1 0 0 0 0,-1.41407 1,1 0 0 0 -1.41407,0 l -5.29297,5.29297 v -11.58594 a 1,1 0 0 0 -1,-1 z" />
    </g>
    <g
       id="g187438"
       transform="translate(0,-5.41992)">
      <path
         id="path24-6"
         style="color:#000000;fill:#000000;stroke-linecap:round;stroke-linejoin:round;-inkscape-stroke:none"
         d="m 1076.4918,105.41992 a 1,1 0 0 0 -1,1 v 11.58594 l -5.2929,-5.29297 a 1,1 0 0 0 -0.7071,-0.29297 1,1 0 0 0 -0.707,0.29297 1,1 0 0 0 0,1.41407 l 7,7 a 1.0001,1.0001 0 0 0 0.062,0.0469 1,1 0 0 0 0.1289,0.0918 1.0001,1.0001 0 0 0 0.1348,0.0684 1,1 0 0 0 0.1484,0.0488 1.0001,1.0001 0 0 0 0.1582,0.0254 1,1 0 0 0 0.074,0.0117 1,1 0 0 0 0.074,-0.0117 1.0001,1.0001 0 0 0 0.1582,-0.0254 1,1 0 0 0 0.1484,-0.0488 1.0001,1.0001 0 0 0 0.1348,-0.0684 1,1 0 0 0 0.1289,-0.0918 1.0001,1.0001 0 0 0 0.062,-0.0469 l 7,-7 a 1,1 0 0 0 0,-1.41407 1,1 0 0 0 -1.4141,0 l -5.2929,5.29297 v -11.58594 a 1,1 0 0 0 -1,-1 z" />
      <text
         xml:space="preserve"
         style="font-size:20px;line-height:1.25;font-family:'Bebas Neue';-inkscape-font-specification:'Bebas Neue';letter-spacing:0px"
         x="1152.3174"
         y="120.41992"
         id="text35781"><tspan
           sodipodi:role="line"
           id="tspan35779"
           x="1152.3174"
           y="120.41992"
           style="font-style:normal;font-variant:normal;font-weight:normal;font-stretch:normal;font-size:20px;font-family:Roboto;-inkscape-font-specification:Roboto;text-align:center;text-anchor:middle;fill:#000000">tensão sobre</tspan><tspan
           sodipodi:role="line"
           x="1152.3174"
           y="145.41992"
           id="tspan35783"
           style="font-style:normal;font-variant:normal;font-weight:normal;font-stretch:normal;font-size:20px;font-family:Roboto;-inkscape-font-specification:Roboto;text-align:center;text-anchor:middle;fill:#000000">tendões e</tspan><tspan
           sodipodi:role="line"
           x="1152.3174"
           y="170.41992"
           style="font-style:normal;font-variant:normal;font-weight:normal;font-stretch:normal;font-size:20px;font-family:Roboto;-inkscape-font-specification:Roboto;text-align:center;text-anchor:middle;fill:#000000"
           id="tspan41215">ligamentos</tspan></text>
    </g>
    <g
       id="g139785"
       transform="translate(0,14.482423)">
      <path
         id="path24"
         style="color:#000000;fill:#000000;stroke-linecap:round;stroke-linejoin:round;-inkscape-stroke:none"
         d="m 571.40985,101.53123 a 1,1 0 0 0 -1,1 v 11.58594 l -5.29296,-5.29297 a 1,1 0 0 0 -0.70704,-0.29297 1,1 0 0 0 -0.70703,0.29297 1,1 0 0 0 0,1.41407 l 7,7 a 1.0001,1.0001 0 0 0 0.0625,0.0469 1,1 0 0 0 0.12891,0.0918 1.0001,1.0001 0 0 0 0.13476,0.0684 1,1 0 0 0 0.14844,0.0488 1.0001,1.0001 0 0 0 0.1582,0.0254 1,1 0 0 0 0.0742,0.0117 1,1 0 0 0 0.0742,-0.0117 1.0001,1.0001 0 0 0 0.15821,-0.0254 1,1 0 0 0 0.14843,-0.0488 1.0001,1.0001 0 0 0 0.13477,-0.0684 1,1 0 0 0 0.12891,-0.0918 1.0001,1.0001 0 0 0 0.0625,-0.0469 l 7,-7 a 1,1 0 0 0 0,-1.41407 1,1 0 0 0 -1.41407,0 l -5.29297,5.29297 v -11.58594 a 1,1 0 0 0 -1,-1 z" />
      <text
         xml:space="preserve"
         style="font-size:20px;line-height:1.25;font-family:'Bebas Neue';-inkscape-font-specification:'Bebas Neue';letter-spacing:0px"
         x="639.91211"
         y="115"
         id="text121716"><tspan
           sodipodi:role="line"
           id="tspan121714"
           x="639.91211"
           y="115"
           style="font-style:normal;font-variant:normal;font-weight:normal;font-stretch:normal;font-size:20px;font-family:Roboto;-inkscape-font-specification:Roboto;text-align:center;text-anchor:middle;fill:#000000">capacidade</tspan><tspan
           sodipodi:role="line"
           x="639.91211"
           y="140"
           style="font-style:normal;font-variant:normal;font-weight:normal;font-stretch:normal;font-size:20px;font-family:Roboto;-inkscape-font-specification:Roboto;text-align:center;text-anchor:middle;fill:#000000"
           id="tspan5906">vital</tspan></text>
    </g>
    <g
       id="g215279"
       transform="translate(38.83451,14.379884)">
      <path
         id="path24-3"
         style="color:#000000;fill:#000000;stroke-linecap:round;stroke-linejoin:round;-inkscape-stroke:none"
         d="m 299.39385,101.77048 a 1,1 0 0 0 -1,1 v 11.58594 l -5.29296,-5.29297 a 1,1 0 0 0 -0.70704,-0.29297 1,1 0 0 0 -0.70703,0.29297 1,1 0 0 0 0,1.41407 l 7,7 a 1.0001,1.0001 0 0 0 0.0625,0.0469 1,1 0 0 0 0.12891,0.0918 1.0001,1.0001 0 0 0 0.13476,0.0684 1,1 0 0 0 0.14844,0.0488 1.0001,1.0001 0 0 0 0.1582,0.0254 1,1 0 0 0 0.0742,0.0117 1,1 0 0 0 0.0742,-0.0117 1.0001,1.0001 0 0 0 0.15821,-0.0254 1,1 0 0 0 0.14843,-0.0488 1.0001,1.0001 0 0 0 0.13477,-0.0684 1,1 0 0 0 0.12891,-0.0918 1.0001,1.0001 0 0 0 0.0625,-0.0469 l 7,-7 a 1,1 0 0 0 0,-1.41407 1,1 0 0 0 -1.41407,0 l -5.29297,5.29297 v -11.58594 a 1,1 0 0 0 -1,-1 z" />
      <text
         xml:space="preserve"
         style="font-size:20px;line-height:1.25;font-family:'Bebas Neue';-inkscape-font-specification:'Bebas Neue';letter-spacing:0px"
         x="357.79929"
         y="115.20508"
         id="text212554"><tspan
           sodipodi:role="line"
           id="tspan212552"
           x="357.79929"
           y="115.20508"
           style="font-style:normal;font-variant:normal;font-weight:normal;font-stretch:normal;font-size:20px;font-family:Roboto;-inkscape-font-specification:Roboto;text-align:center;text-anchor:middle;fill:#000000">força</tspan><tspan
           sodipodi:role="line"
           x="357.79929"
           y="140.20508"
           style="font-style:normal;font-variant:normal;font-weight:normal;font-stretch:normal;font-size:20px;font-family:Roboto;-inkscape-font-specification:Roboto;text-align:center;text-anchor:middle;fill:#000000"
           id="tspan10109">muscular</tspan></text>
    </g>
    <text
       xml:space="preserve"
       style="font-size:40px;line-height:1.25;font-family:'Bebas Neue';-inkscape-font-specification:'Bebas Neue';letter-spacing:0px"
       x="118.53213"
       y="135.40079"
       id="text15925"><tspan
         sodipodi:role="line"
         x="118.53213"
         y="135.40079"
         id="tspan15929"
         style="font-style:normal;font-variant:normal;font-weight:normal;font-stretch:normal;font-size:20px;font-family:Roboto;-inkscape-font-specification:Roboto;fill:#000000" /></text>
    <text
       xml:space="preserve"
       style="font-size:40px;line-height:1.25;font-family:'Bebas Neue';-inkscape-font-specification:'Bebas Neue';letter-spacing:0px"
       x="145.20857"
       y="125.5499"
       id="text23072"><tspan
         sodipodi:role="line"
         id="tspan23070"
         x="145.20857"
         y="125.5499"></tspan></text>
    <text
       xml:space="preserve"
       style="font-size:40px;line-height:1.25;font-family:'Bebas Neue';-inkscape-font-specification:'Bebas Neue';letter-spacing:0px"
       x="148.67688"
       y="161.8364"
       id="text38490"><tspan
         sodipodi:role="line"
         x="148.67688"
         y="161.8364"
         id="tspan38494"
         style="fill:#000000" /></text>
    <text
       xml:space="preserve"
       style="font-size:40px;line-height:1.25;font-family:'Bebas Neue';-inkscape-font-specification:'Bebas Neue';letter-spacing:0px"
       x="171.9649"
       y="112.33457"
       id="text45316"><tspan
         sodipodi:role="line"
         id="tspan45314"
         x="171.9649"
         y="112.33457"></tspan></text>
    <text
       xml:space="preserve"
       style="font-size:20px;line-height:1.25;font-family:'Bebas Neue';-inkscape-font-specification:'Bebas Neue';letter-spacing:0px"
       x="127.61426"
       y="129.48242"
       id="text212554-6"><tspan
         sodipodi:role="line"
         x="127.61426"
         y="129.48242"
         style="font-style:normal;font-variant:normal;font-weight:normal;font-stretch:normal;font-size:20px;font-family:Roboto;-inkscape-font-specification:Roboto;text-align:center;text-anchor:middle;fill:#000000"
         id="tspan10109-5">Rigidez</tspan><tspan
         sodipodi:role="line"
         x="127.61426"
         y="154.48242"
         style="font-style:normal;font-variant:normal;font-weight:normal;font-stretch:normal;font-size:20px;font-family:Roboto;-inkscape-font-specification:Roboto;text-align:center;text-anchor:middle;fill:#000000"
         id="tspan54130">articular</tspan></text>
  </g>
</svg>
