<svg width="413.46" height="580.65" version="1.1" viewBox="0 0 413.46 580.65" xmlns="http://www.w3.org/2000/svg">
 <style type="text/css">.st0{fill:#1D1D1B;}
	.st1{fill:#0071BB;}
	.st2{fill:#838BC5;}
	.st3{fill:#ED6B06;}
	.st4{fill:#E7B418;}
	.st5{fill:#60B03D;}
	.st6{fill:#A952A5;}
	.st7{fill:#2DB3C6;}
	.st8{fill:#58595B;}
	.st9{fill:#FFFFFF;}
	.st10{fill:#FFFF00;}
	.st11{fill:#FF0000;}
	.st12{fill:#FFFFFF;stroke:#006E84;stroke-miterlimit:10;}</style>
 <g transform="translate(-797.54,-807.4)">
  <path class="st1" d="m836.1 888.31c-3.99 5.21-7.71 10.61-11.14 16.18h358.62c-3.43-5.57-7.15-10.97-11.13-16.18-37.5-48.98-98.85-80.91-168.17-80.91s-130.68 31.93-168.18 80.91z"/>
  <path class="st3" d="m1184.2 905.53c-0.21-0.35-0.43-0.69-0.64-1.03h-358.62c-0.21 0.34-0.43 0.69-0.64 1.03-11.76 19.39-20.04 40.87-24.04 63.69-1.8 10.26-2.74 20.79-2.74 31.53 0 0.28 0 0.56 0.01 0.84h413.44c0-0.28 0.01-0.56 0.01-0.84 0-10.74-0.94-21.27-2.74-31.53-4-22.82-12.28-44.3-24.04-63.69z"/>
  <path class="st4" d="m797.58 1003.6c0.25 16.04 2.6 31.61 6.79 46.47 4.86 17.24 12.2 33.54 21.64 48.54h356.52c9.44-15 16.78-31.3 21.64-48.54 4.19-14.87 6.54-30.43 6.79-46.47l0.03-2.07h-413.44l0.03 2.07z"/>
  <path class="st5" d="m828.01 1101.8c4.74 7.22 9.97 14.14 15.66 20.69h-0.01c2.08 2.66 4.38 5.57 6.76 8.57 11.38 14.35 24.55 30.69 24.55 30.69 8 10.27 14.26 22.13 19.14 34.04h220.32c4.89-11.9 11.14-23.77 19.14-34.04 0 0 13.18-16.33 24.55-30.69 2.38-3 4.67-5.91 6.76-8.57 5.69-6.55 10.92-13.47 15.66-20.69 0.67-1.03 1.34-2.06 1.99-3.1h-356.52c0.66 1.04 1.32 2.07 2 3.1z"/>
  <path class="st6" d="m1097.9 1262.7s2.03-23.56 10.7-50.78c1.26-3.96 2.66-7.99 4.22-12.04h-0.01c0.53-1.38 1.08-2.76 1.65-4.14h-220.32c0.57 1.38 1.12 2.76 1.65 4.14h0.01c1.56 4.05 2.96 8.09 4.22 12.04 8.67 27.21 10.7 50.78 10.7 50.78 2.98 27.21 33.54 30.13 33.54 30.13h120.11c-0.01 0 30.55-2.92 33.53-30.13z"/>
  <line class="st7" x1="1006.4" x2="1005.7" y1="1307.5" y2="1308.5"/>
  <path class="st8" d="m1078 1301.8h-143.3c-7.37 0-13.35 5.98-13.35 13.35s5.98 13.35 13.35 13.35h143.3c7.38 0 13.35-5.98 13.35-13.35s-5.98-13.35-13.35-13.35z"/>
  <path class="st8" d="m1063.8 1336.9h-114.79c-5.91 0-10.7 4.79-10.7 10.69 0 5.91 4.79 10.7 10.7 10.7h114.79c5.91 0 10.7-4.79 10.7-10.7 0-5.9-4.79-10.69-10.7-10.69z"/>
  <path class="st8" d="m1043.9 1366.6h-75.06c-5.91 0-10.7 4.79-10.7 10.7s4.79 10.7 10.7 10.7h75.06c5.91 0 10.7-4.79 10.7-10.7s-4.79-10.7-10.7-10.7z"/>
 </g>
</svg>
