<?xml version="1.0" encoding="UTF-8"?>
<svg width="905" height="470" fill="none" version="1.1" viewBox="0 0 905 470" xmlns="http://www.w3.org/2000/svg">
 <g id="fase" transform="translate(-610,-221)">
  <rect x="610" y="221" width="397" height="134" rx="10" fill="#ff8d3e"/>
  <text fill="#000000" font-family="Roboto" font-size="22px" letter-spacing="0em" style="white-space:pre" xml:space="preserve"><tspan x="632.25299" y="256.51999">Fase em que o paciente se encontra </tspan><tspan x="631.02802" y="282.51999">para promover adaptações e manter </tspan><tspan x="641.341" y="308.51999">as condutas sempre atualizadas e </tspan><tspan x="644.56299" y="334.51999">adequadas à condição da pessoa</tspan></text>
 </g>
 <g id="fisiopatologia" transform="translate(-610,-221)">
  <rect x="1336" y="476" width="179" height="56" rx="10" fill="#96d2e7"/>
  <text fill="#000000" font-family="Roboto" font-size="22px" letter-spacing="0em" style="white-space:pre" xml:space="preserve"><tspan x="1356.41" y="511.51999">Fisiopatologia</tspan></text>
 </g>
 <g id="definicao" transform="translate(-610,-221)">
  <rect x="1336" y="320" width="132" height="56" rx="10" fill="#96d2e7"/>
  <text fill="#000000" font-family="Roboto" font-size="22px" letter-spacing="0em" style="white-space:pre" xml:space="preserve"><tspan x="1356.08" y="355.51999">Definição</tspan></text>
 </g>
 <g id="importancia" transform="translate(-610,-221)">
  <rect x="701" y="405" width="306" height="82" rx="10" fill="#96d2e7"/>
  <text fill="#000000" font-family="Roboto" font-size="22px" letter-spacing="0em" style="white-space:pre" xml:space="preserve"><tspan x="722.612" y="440.51999">Importância da atuação da </tspan><tspan x="743.45203" y="466.51999">equipe multidisciplinar</tspan></text>
 </g>
 <g id="sintomas" transform="translate(-610,-221)">
  <rect x="1336" y="632" width="133" height="56" rx="10" fill="#96d2e7"/>
  <text fill="#000000" font-family="Roboto" font-size="22px" letter-spacing="0em" style="white-space:pre" xml:space="preserve"><tspan x="1356.14" y="667.52002">Sintomas</tspan></text>
 </g>
 <g id="classificacao" transform="translate(-610,-221)">
  <rect x="835" y="635" width="172" height="56" rx="10" fill="#96d2e7"/>
  <text fill="#000000" font-family="Roboto" font-size="22px" letter-spacing="0em" style="white-space:pre" xml:space="preserve"><tspan x="855.27899" y="670.52002">Classificação</tspan></text>
 </g>
 <g id="titulo" transform="translate(-610,-221)">
  <g fill="#000">
   <path d="m1296 505.5h40v-3h-40z"/>
   <path d="m1047 502.5h-15v3h15zm-18.5-3.5v-48h-3v48zm-6.5-54.5h-15v3h15zm6.5 6.5c0-3.59-2.91-6.5-6.5-6.5v3c1.93 0 3.5 1.567 3.5 3.5zm3.5 51.5c-1.93 0-3.5-1.567-3.5-3.5h-3c0 3.59 2.91 6.5 6.5 6.5z"/>
   <path d="m1047 502.5h-15v3h15zm-18.5-3.5v-206h-3v206zm-6.5-212.5h-15v3h15zm6.5 6.5c0-3.59-2.91-6.5-6.5-6.5v3c1.93 0 3.5 1.567 3.5 3.5zm3.5 209.5c-1.93 0-3.5-1.567-3.5-3.5h-3c0 3.59 2.91 6.5 6.5 6.5z"/>
   <path d="m1047 502.5h-15v3h15zm-21.5 6.5v149h3v-149zm-3.5 152.5h-15v3h15zm3.5-3.5c0 1.933-1.57 3.5-3.5 3.5v3c3.59 0 6.5-2.91 6.5-6.5zm6.5-155.5c-3.59 0-6.5 2.91-6.5 6.5h3c0-1.933 1.57-3.5 3.5-3.5z"/>
   <path d="m1296 505.5h15v-3h-15zm21.5-6.5v-146h-3v146zm3.5-149.5h15v-3h-15zm-3.5 3.5c0-1.933 1.57-3.5 3.5-3.5v-3c-3.59 0-6.5 2.91-6.5 6.5zm-6.5 152.5c3.59 0 6.5-2.91 6.5-6.5h-3c0 1.933-1.57 3.5-3.5 3.5z"/>
   <path d="m1296 505.5h15v-3h-15zm18.5 3.5v146h3v-146zm6.5 152.5h15v-3h-15zm-6.5-6.5c0 3.59 2.91 6.5 6.5 6.5v-3c-1.93 0-3.5-1.567-3.5-3.5zm-3.5-149.5c1.93 0 3.5 1.567 3.5 3.5h3c0-3.59-2.91-6.5-6.5-6.5z"/>
   <path d="m1027 505.5h40v-3h-40z"/>
  </g>
  <rect x="1047" y="447" width="249" height="114" rx="10" fill="#5a729a"/>
  <text fill="#ffffff" font-family="Roboto" font-size="24px" font-weight="500" letter-spacing="0em" style="white-space:pre" xml:space="preserve"><tspan x="1079.14" y="484.203">Abordagem geral </tspan><tspan x="1098" y="512.203">sobre a ELA e </tspan><tspan x="1067.12" y="540.203">Fisioterapia Motora</tspan></text>
 </g>
</svg>
