<?xml version="1.0" encoding="UTF-8"?>
<svg width="1019" height="670" fill="none" version="1.1" viewBox="0 0 1019 670"
    xmlns="http://www.w3.org/2000/svg">
    <g id="botao-organizacao" transform="translate(-974.5,-82)">
        <rect x="1618.5" y="404" width="375" height="56" rx="10" fill="#96d2e7"/>
        <text x="-47.5" y="-154" fill="#000000" font-family="Roboto" font-size="22px" letter-spacing="0em" style="white-space:pre" xml:space="preserve">
            <tspan x="1638.6801" y="439.52002">Organização da rotina do paciente</tspan>
        </text>
    </g>
    <g id="botao-atividades" transform="translate(-974.5,-82)">
        <rect x="974.5" y="404" width="270" height="56" rx="10" fill="#96d2e7"/>
        <text x="-47.5" y="-154" fill="#000000" font-family="Roboto" font-size="22px" letter-spacing="0em" style="white-space:pre" xml:space="preserve">
            <tspan x="994.79004" y="439.52002">Atividades terapêuticas</tspan>
        </text>
    </g>
    <g id="botao-planejamento" transform="translate(-974.5,-82)">
        <rect x="1618.5" y="696" width="291" height="56" rx="10" fill="#96d2e7"/>
        <text x="-47.5" y="-154" fill="#000000" font-family="Roboto" font-size="22px" letter-spacing="0em" style="white-space:pre" xml:space="preserve">
            <tspan x="1638.51" y="731.52002">Planejamento terapêutico</tspan>
        </text>
    </g>
    <g id="botao-evolucao" transform="translate(-974.5,-82)">
        <rect x="1618.5" y="82" width="339" height="108" rx="10" fill="#96d2e7"/>
        <text x="-47.5" y="-154" fill="#000000" font-family="Roboto" font-size="22px" letter-spacing="0em" style="white-space:pre" xml:space="preserve">
            <tspan x="1638.62" y="117.51999">Evolução da ELA e sua relação </tspan>
            <tspan x="1644.73" y="143.51999">com as atividades de rotina e </tspan>
            <tspan x="1674.39" y="169.51999">atividades terapêuticas</tspan>
        </text>
    </g>
    <g id="titulo" transform="translate(-974.5,-82)">
        <rect x="1284.5" y="389" width="294" height="86" rx="10" fill="#5a729a"/>
        <text x="-47.5" y="-154" fill="#ffffff" font-family="Roboto" font-size="24px" font-weight="500" letter-spacing="0em" style="white-space:pre" xml:space="preserve">
            <tspan x="1304.83" y="426.203">Atuação da Fisioterapia </tspan>
            <tspan x="1308.5601" y="454.203">Neurofuncional na ELA</tspan>
        </text>
        <g fill="#000">
            <path d="m1578.5 433.5h40v-3h-40z"/>
            <path d="m1578.5 433.5h10v-3h-10zm21.5-11.5v-276h-3v276zm8.5-284.5h10v-3h-10zm-8.5 8.5c0-4.694 3.81-8.5 8.5-8.5v-3c-6.35 0-11.5 5.149-11.5 11.5zm-11.5 287.5c6.35 0 11.5-5.149 11.5-11.5h-3c0 4.694-3.81 8.5-8.5 8.5z"/>
            <path d="m1578.5 433.5h10v-3h-10zm18.5 8.5v272h3v-272zm11.5 283.5h10v-3h-10zm-11.5-11.5c0 6.351 5.15 11.5 11.5 11.5v-3c-4.69 0-8.5-3.806-8.5-8.5zm-8.5-280.5c4.69 0 8.5 3.806 8.5 8.5h3c0-6.351-5.15-11.5-11.5-11.5z"/>
            <path d="m1284.5 430.5h-40v3h40z"/>
        </g>
    </g>
</svg>
