<?xml version="1.0" encoding="UTF-8"?>
<!-- Created with Inkscape (http://www.inkscape.org/) -->
<svg width="1242" height="568" version="1.1" viewBox="0 0 328.61 150.28"
    xmlns="http://www.w3.org/2000/svg">
    <g transform="translate(61.041 -90.774)">
        <g id="botao-atividades" transform="matrix(.26458 0 0 .26458 -61.703 24.628)">
            <rect x="974.5" y="404" width="270" height="56" rx="10" fill="#96d2e7"/>
            <text x="-47.5" y="-154" fill="#000000" font-family="Roboto" font-size="22px" letter-spacing="0em" style="white-space:pre" xml:space="preserve">
                <tspan x="994.79004" y="439.52002">Atividades terapêuticas</tspan>
            </text>
        </g>
        <g id="botao-atividades-conteudo" transform="matrix(.26458 0 0 .26458 -61.703 24.628)">
            <rect x="727" y="412.5" width="207" height="40" rx="9.5" fill="#fff" stroke="#000"/>
            <text x="-47.5" y="-154" fill="#000000" font-family="Roboto" font-size="18px" letter-spacing="0em" style="white-space:pre" xml:space="preserve">
                <tspan x="741.5" y="438.65198">Volume de tratamento</tspan>
            </text>
            <path d="m974.5 430.5h-40v3h40z"/>
            <rect x="568" y="286.5" width="118" height="40" rx="9.5" fill="#fff" stroke="#000"/>
            <text x="-47.5" y="-154" fill="#000000" font-family="Roboto" font-size="18px" letter-spacing="0em" style="white-space:pre" xml:space="preserve">
                <tspan x="582.5" y="312.65201">Frequência</tspan>
            </text>
            <rect x="563" y="412.5" width="123" height="40" rx="9.5" fill="#fff" stroke="#000"/>
            <text x="-47.5" y="-154" fill="#000000" font-family="Roboto" font-size="18px" letter-spacing="0em" style="white-space:pre" xml:space="preserve">
                <tspan x="577.5" y="438.65198">Intensidade</tspan>
            </text>
            <rect x="612" y="604.5" width="74" height="40" rx="9.5" fill="#fff" stroke="#000"/>
            <text x="-47.5" y="-154" fill="#000000" font-family="Roboto" font-size="18px" letter-spacing="0em" style="white-space:pre" xml:space="preserve">
                <tspan x="626.5" y="630.65198">Tipos</tspan>
            </text>
            <rect x="376" y="533.5" width="195" height="40" rx="9.5" fill="#fff" stroke="#000"/>
            <text x="-47.5" y="-154" fill="#000000" font-family="Roboto" font-size="18px" letter-spacing="0em" style="white-space:pre" xml:space="preserve">
                <tspan x="390.5" y="559.65198">Exercícios aeróbicos</tspan>
            </text>
            <rect x="425" y="604.5" width="146" height="40" rx="9.5" fill="#fff" stroke="#000"/>
            <text x="-47.5" y="-154" fill="#000000" font-family="Roboto" font-size="18px" letter-spacing="0em" style="white-space:pre" xml:space="preserve">
                <tspan x="439.5" y="630.65198">Alongamentos</tspan>
            </text>
            <rect x="367" y="675.5" width="204" height="40" rx="9.5" fill="#fff" stroke="#000"/>
            <text x="-47.5" y="-154" fill="#000000" font-family="Roboto" font-size="18px" letter-spacing="0em" style="white-space:pre" xml:space="preserve">
                <tspan x="381.5" y="701.65198">Treinamento resistido</tspan>
            </text>
            <rect x="338" y="250.5" width="189" height="40" rx="9.5" fill="#fff" stroke="#000"/>
            <text x="-47.5" y="-154" fill="#000000" font-family="Roboto" font-size="18px" letter-spacing="0em" style="white-space:pre" xml:space="preserve">
                <tspan x="352.5" y="276.65201">2 vezes por semana</tspan>
            </text>
            <rect x="373" y="321.5" width="154" height="40" rx="9.5" fill="#fff" stroke="#000"/>
            <text x="-47.5" y="-154" fill="#000000" font-family="Roboto" font-size="18px" letter-spacing="0em" style="white-space:pre" xml:space="preserve">
                <tspan x="387.5" y="347.65201">Dias alternados</tspan>
            </text>
            <rect x="402" y="412.5" width="120" height="40" rx="9.5" fill="#fff" stroke="#000"/>
            <text x="-47.5" y="-154" fill="#000000" font-family="Roboto" font-size="18px" letter-spacing="0em" style="white-space:pre" xml:space="preserve">
                <tspan x="416.5" y="438.65198">45 minutos</tspan>
            </text>
            <rect x="203" y="593.5" width="123" height="40" rx="9.5" fill="#fff" stroke="#000"/>
            <text x="-47.5" y="-154" fill="#000000" font-family="Roboto" font-size="18px" letter-spacing="0em" style="white-space:pre" xml:space="preserve">
                <tspan x="217.5" y="619.65198">Baixa carga</tspan>
            </text>
            <rect x="58" y="664.5" width="268" height="61" rx="9.5" fill="#fff" stroke="#000"/>
            <text x="-47.5" y="-154" fill="#000000" font-family="Roboto" font-size="18px" letter-spacing="0em" style="white-space:pre" xml:space="preserve">
                <tspan x="72.5" y="690.65198">2 séries de 12 a 15 repetições </tspan>
                <tspan x="72.5" y="711.65198">com intervalo de 5 minutos</tspan>
            </text>
            <rect x="3" y="756.5" width="323" height="61" rx="9.5" fill="#fff" stroke="#000"/>
            <text x="-47.5" y="-154" fill="#000000" font-family="Roboto" font-size="18px" letter-spacing="0em" style="white-space:pre" xml:space="preserve">
                <tspan x="17.5" y="782.65198">Força resistiva de 40% da velocidade </tspan>
                <tspan x="17.5" y="803.65198">de contração máxima</tspan>
            </text>
            <g>
                <path d="m726.5 431h-40v3h40z"/>
                <path d="m726.5 431h-10v3h10zm-18.5-8.5v-106h-3v106zm-11.5-117.5h-10v3h10zm11.5 11.5c0-6.351-5.149-11.5-11.5-11.5v3c4.694 0 8.5 3.806 8.5 8.5zm8.5 114.5c-4.694 0-8.5-3.806-8.5-8.5h-3c0 6.351 5.149 11.5 11.5 11.5z"/>
                <path d="m726.5 431h-10v3h10zm-21.5 11.5v172h3v-172zm-8.5 180.5h-10v3h10zm8.5-8.5c0 4.694-3.806 8.5-8.5 8.5v3c6.351 0 11.5-5.149 11.5-11.5zm11.5-183.5c-6.351 0-11.5 5.149-11.5 11.5h3c0-4.694 3.806-8.5 8.5-8.5z"/>
                <path d="m562.5 431h-40v3h40z"/>
                <path d="m567.5 305h-10v3h10zm-18.5-8.5v-16h-3v16zm-11.5-27.5h-10v3h10zm11.5 11.5c0-6.351-5.149-11.5-11.5-11.5v3c4.694 0 8.5 3.806 8.5 8.5zm8.5 24.5c-4.694 0-8.5-3.806-8.5-8.5h-3c0 6.351 5.149 11.5 11.5 11.5z"/>
                <path d="m567.5 305h-10v3h10zm-21.5 11.5v15h3v-15zm-8.5 23.5h-10v3h10zm8.5-8.5c0 4.694-3.806 8.5-8.5 8.5v3c6.351 0 11.5-5.149 11.5-11.5zm11.5-26.5c-6.351 0-11.5 5.149-11.5 11.5h3c0-4.694 3.806-8.5 8.5-8.5z"/>
                <path d="m611.5 623h-40v3h40z"/>
                <path d="m611.5 623h-10v3h10zm-18.5-8.5v-51h-3v51zm-11.5-62.5h-10v3h10zm11.5 11.5c0-6.351-5.149-11.5-11.5-11.5v3c4.694 0 8.5 3.806 8.5 8.5zm8.5 59.5c-4.694 0-8.5-3.806-8.5-8.5h-3c0 6.351 5.149 11.5 11.5 11.5z"/>
                <path d="m611.5 623h-10v3h10zm-21.5 11.5v51h3v-51zm-8.5 59.5h-10v3h10zm8.5-8.5c0 4.694-3.806 8.5-8.5 8.5v3c6.351 0 11.5-5.149 11.5-11.5zm11.5-62.5c-6.351 0-11.5 5.149-11.5 11.5h3c0-4.694 3.806-8.5 8.5-8.5z"/>
                <path d="m366.5 694h-19.75v3h19.75zm-20.25-0.5h-19.75v3h19.75zm1.75 1.75c0-0.966-0.784-1.75-1.75-1.75v3c-0.69 0-1.25-0.56-1.25-1.25zm-1.25-1.25c0.69 0 1.25 0.56 1.25 1.25h-3c0 0.966 0.783 1.75 1.75 1.75z"/>
                <path d="m366.5 694h-10v3h10zm-18.5-8.5v-62h-3v62zm-11.5-73.5h-10v3h10zm11.5 11.5c0-6.351-5.149-11.5-11.5-11.5v3c4.694 0 8.5 3.806 8.5 8.5zm8.5 70.5c-4.694 0-8.5-3.806-8.5-8.5h-3c0 6.351 5.149 11.5 11.5 11.5z"/>
                <path d="m366.5 694h-10v3h10zm-21.5 11.5v71.5h3v-71.5zm-8.5 80h-10v3h10zm8.5-8.5c0 4.694-3.806 8.5-8.5 8.5v3c6.351 0 11.5-5.149 11.5-11.5zm11.5-83c-6.351 0-11.5 5.149-11.5 11.5h3c0-4.694 3.806-8.5 8.5-8.5z"/>
            </g>
        </g>
    </g>
</svg>
