<?xml version="1.0" encoding="UTF-8"?>
<!-- Created with Inkscape (http://www.inkscape.org/) -->
<svg width="809" height="254" version="1.1" viewBox="0 0 214.05 67.204"
    xmlns="http://www.w3.org/2000/svg">
    <g transform="translate(71.406 -130.24)">
        <g id="botao-evolucao" transform="matrix(.26458 0 0 .26458 -499.63 127.86)">
            <rect x="1618.5" y="82" width="339" height="108" rx="10" fill="#96d2e7"/>
            <text x="-47.5" y="-154" fill="#000000" font-family="Roboto" font-size="22px" letter-spacing="0em" style="white-space:pre" xml:space="preserve">
                <tspan x="1638.62" y="117.51999">Evolução da ELA e sua relação </tspan>
                <tspan x="1644.73" y="143.51999">com as atividades de rotina e </tspan>
                <tspan x="1674.39" y="169.51999">atividades terapêuticas</tspan>
            </text>
        </g>
        <g id="botao-evolucao-conteudo" transform="matrix(.26458 0 0 .26458 -499.63 127.86)">
            <rect x="1998" y="116.5" width="166" height="40" rx="9.5" fill="#fff" stroke="#000"/>
            <text x="-47.5" y="-154" fill="#000000" font-family="Roboto" font-size="18px" letter-spacing="0em" style="white-space:pre" xml:space="preserve">
                <tspan x="2012.5" y="142.65201">Conceitos da CIF</tspan>
            </text>
            <rect x="2205" y="80.5" width="183" height="40" rx="9.5" fill="#fff" stroke="#000"/>
            <text x="-47.5" y="-154" fill="#000000" font-family="Roboto" font-size="18px" letter-spacing="0em" style="white-space:pre" xml:space="preserve">
                <tspan x="2219.5" y="106.65201">Fatores ambientais</tspan>
            </text>
            <rect x="2205" y="151.5" width="166" height="40" rx="9.5" fill="#fff" stroke="#000"/>
            <text x="-47.5" y="-154" fill="#000000" font-family="Roboto" font-size="18px" letter-spacing="0em" style="white-space:pre" xml:space="preserve">
                <tspan x="2219.5" y="177.65201">Fatores pessoais</tspan>
            </text>
            <rect x="2205" y="222.5" width="222" height="40" rx="9.5" fill="#fff" stroke="#000"/>
            <text x="-47.5" y="-154" fill="#000000" font-family="Roboto" font-size="18px" letter-spacing="0em" style="white-space:pre" xml:space="preserve">
                <tspan x="2219.5" y="248.65201">Atividade e participação</tspan>
            </text>
            <rect x="2205" y="9.5" width="176" height="40" rx="9.5" fill="#fff" stroke="#000"/>
            <text x="-47.5" y="-154" fill="#000000" font-family="Roboto" font-size="18px" letter-spacing="0em" style="white-space:pre" xml:space="preserve">
                <tspan x="2219.5" y="35.651993">Estrutura e função</tspan>
            </text>
            <g>
                <path d="m2164.5 138h10v-3h-10zm21.5-11.5v-87h-3v87zm8.5-95.5h10v-3h-10zm-8.5 8.5c0-4.694 3.81-8.5 8.5-8.5v-3c-6.35 0-11.5 5.149-11.5 11.5zm-11.5 98.5c6.35 0 11.5-5.149 11.5-11.5h-3c0 4.694-3.81 8.5-8.5 8.5z"/>
                <path d="m2164.5 138h10v-3h-10zm21.5-11.5v-16h-3v16zm8.5-24.5h10v-3h-10zm-8.5 8.5c0-4.694 3.81-8.5 8.5-8.5v-3c-6.35 0-11.5 5.149-11.5 11.5zm-11.5 27.5c6.35 0 11.5-5.149 11.5-11.5h-3c0 4.694-3.81 8.5-8.5 8.5z"/>
                <path d="m2164.5 138h10v-3h-10zm18.5 8.5v15h3v-15zm11.5 26.5h10v-3h-10zm-11.5-11.5c0 6.351 5.15 11.5 11.5 11.5v-3c-4.69 0-8.5-3.806-8.5-8.5zm-8.5-23.5c4.69 0 8.5 3.806 8.5 8.5h3c0-6.351-5.15-11.5-11.5-11.5z"/>
                <path d="m2164.5 138h10v-3h-10zm18.5 8.5v86h3v-86zm11.5 97.5h10v-3h-10zm-11.5-11.5c0 6.351 5.15 11.5 11.5 11.5v-3c-4.69 0-8.5-3.806-8.5-8.5zm-8.5-94.5c4.69 0 8.5 3.806 8.5 8.5h3c0-6.351-5.15-11.5-11.5-11.5z"/>
                <path d="m1997.5 135.5h-40v3h40z"/>
            </g>
        </g>
    </g>
</svg>
