<?xml version="1.0" encoding="UTF-8"?>
<!-- Created with Inkscape (http://www.inkscape.org/) -->
<svg width="754" height="175" version="1.1" viewBox="0 0 199.5 46.302"
   xmlns="http://www.w3.org/2000/svg">
   <g transform="translate(33.065 -131.2)">
      <g id="botao-organizacao" transform="matrix(.26458 0 0 .26458 -461.29 48.386)">
         <rect x="1618.5" y="404" width="375" height="56" rx="10" fill="#96d2e7"/>
         <text x="-47.5" y="-154" fill="#000000" font-family="Roboto" font-size="22px" letter-spacing="0em" style="white-space:pre" xml:space="preserve">
            <tspan x="1638.6801" y="439.52002">Organização da rotina do paciente</tspan>
         </text>
      </g>
      <g id="botao-organizacao-conteudo" transform="matrix(.26458 0 0 .26458 -461.29 48.386)">
         <rect x="2034" y="447.5" width="281" height="40" rx="9.5" fill="#fff" stroke="#000"/>
         <text x="-47.5" y="-154" fill="#000000" font-family="Roboto" font-size="18px" letter-spacing="0em" style="white-space:pre" xml:space="preserve">
            <tspan x="2048.5" y="473.65198">Evitar a sobrecarga ao paciente</tspan>
         </text>
         <rect x="2034" y="313.5" width="338" height="103" rx="9.5" fill="#fff" stroke="#000"/>
         <text x="-47.5" y="-154" fill="#000000" font-family="Roboto" font-size="18px" letter-spacing="0em" style="white-space:pre" xml:space="preserve">
            <tspan x="2048.5" y="339.65201">Equilíbrio entre:
            </tspan>
            <tspan x="2075.5" y="360.65198">Atividades de rotina e terapêuticas,
            </tspan>
            <tspan x="2075.5" y="381.65198">Velocidade de progressão
            </tspan>
            <tspan x="2075.5" y="402.65198">Estágio da doença</tspan>
         </text>
         <path d="m1993.5 433.5h10v-3h-10zm21.5-11.5v-47h-3v47zm8.5-55.5h10v-3h-10zm-8.5 8.5c0-4.694 3.81-8.5 8.5-8.5v-3c-6.35 0-11.5 5.149-11.5 11.5zm-11.5 58.5c6.35 0 11.5-5.149 11.5-11.5h-3c0 4.694-3.81 8.5-8.5 8.5z"/>
         <path d="m1993.5 433.5h10v-3h-10zm18.5 8.5v15.5h3v-15.5zm11.5 27h10v-3h-10zm-11.5-11.5c0 6.351 5.15 11.5 11.5 11.5v-3c-4.69 0-8.5-3.806-8.5-8.5zm-8.5-24c4.69 0 8.5 3.806 8.5 8.5h3c0-6.351-5.15-11.5-11.5-11.5z"/>
      </g>
   </g>
</svg>
