<?xml version="1.0" encoding="UTF-8"?>
<svg width="569" height="2292" fill="none" version="1.1" viewBox="0 0 569 2292"
   xmlns="http://www.w3.org/2000/svg">
   <g id="botao-dispositivos" transform="translate(-50,-156)">
      <rect x="380" y="537" width="220" height="72" rx="10" fill="#ffbcc0"/>
      <text fill="#000000" font-family="Roboto" font-size="18px" letter-spacing="0em" style="white-space:pre" xml:space="preserve">
         <tspan x="400" y="568.65198">Dispositivos auxiliares </tspan>
         <tspan x="400" y="589.65198">para locomoção</tspan>
      </text>
   </g>
   <g id="botoes-orteses" transform="translate(-50,-156)">
      <rect x="380" y="1931" width="103" height="51" rx="10" fill="#ffbcc0"/>
      <text fill="#000000" font-family="Roboto" font-size="18px" letter-spacing="0em" style="white-space:pre" xml:space="preserve">
         <tspan x="400.246" y="1962.65">Órteses</tspan>
      </text>
   </g>
   <g id="botao-adaptacoes" transform="translate(-50,-156)">
      <rect x="380" y="2397" width="239" height="51" rx="10" fill="#ffbcc0"/>
      <text fill="#000000" font-family="Roboto" font-size="18px" letter-spacing="0em" style="white-space:pre" xml:space="preserve">
         <tspan x="400.41199" y="2428.6499">Adaptações domiciliares</tspan>
      </text>
   </g>
   <g id="titulo" transform="translate(-50,-156)">
      <rect x="50" y="156" width="290" height="99" rx="10" fill="#f6212d"/>
      <text fill="#ffffff" font-family="Roboto" font-size="20px" font-weight="500" letter-spacing="0em" style="white-space:pre" xml:space="preserve">
         <tspan x="70.400398" y="189.336">Estratégias para otimização </tspan>
         <tspan x="108.164" y="212.336">da função motora e </tspan>
         <tspan x="85.566399" y="235.336">adaptações domiciliares</tspan>
      </text>
      <g fill="#000">
         <path d="m358.5 225.5v327.5h3v-327.5zm0 327.5c0 11.874 9.626 21.5 21.5 21.5v-3c-10.217 0-18.5-8.283-18.5-18.5zm-18.5-346c10.217 0 18.5 8.283 18.5 18.5h3c0-11.874-9.626-21.5-21.5-21.5z"/>
         <path d="m358.5 225.5v1711h3v-1711zm0 1711c0 11.87 9.626 21.5 21.5 21.5v-3c-10.217 0-18.5-8.28-18.5-18.5zm-18.5-1729.5c10.217 0 18.5 8.283 18.5 18.5h3c0-11.874-9.626-21.5-21.5-21.5z"/>
         <path d="m358.5 225.5v2177h3v-2177zm0 2177c0 11.87 9.626 21.5 21.5 21.5v-3c-10.217 0-18.5-8.28-18.5-18.5zm-18.5-2195.5c10.217 0 18.5 8.283 18.5 18.5h3c0-11.874-9.626-21.5-21.5-21.5z"/>
      </g>
   </g>
</svg>
