<?xml version="1.0" encoding="UTF-8"?>
<!-- Created with Inkscape (http://www.inkscape.org/) -->
<svg width="604" height="220" version="1.1" viewBox="0 0 159.81 58.208"
      xmlns="http://www.w3.org/2000/svg">
      <g transform="translate(-2.4339 -115.97)">
            <g id="botao-adaptacoes" transform="matrix(.26458 0 0 .26458 -98.108 -495.75)">
                  <rect x="380" y="2397" width="239" height="51" rx="10" fill="#ffbcc0"/>
                  <text fill="#000000" font-family="Roboto" font-size="18px" letter-spacing="0em" style="white-space:pre" xml:space="preserve">
                        <tspan x="400.41199" y="2428.6499">Adaptações domiciliares</tspan>
                  </text>
            </g>
            <g id="adaptacoes-conteudo" transform="matrix(.26458 0 0 .26458 -98.108 -495.75)">
                  <rect x="659.5" y="2312.5" width="324" height="38" rx="9.5" fill="#fff" stroke="#000"/>
                  <text fill="#000000" font-family="Roboto" font-size="16px" letter-spacing="0em" style="white-space:pre" xml:space="preserve">
                        <tspan x="674" y="2336.97">Remoção de tapetes e de cortinas longas</tspan>
                  </text>
                  <rect x="659.5" y="2366.5" width="239" height="38" rx="9.5" fill="#fff" stroke="#000"/>
                  <text fill="#000000" font-family="Roboto" font-size="16px" letter-spacing="0em" style="white-space:pre" xml:space="preserve">
                        <tspan x="674" y="2390.97">Reposicionamento de móveis</tspan>
                  </text>
                  <rect x="659.5" y="2420.5" width="291" height="57" rx="9.5" fill="#fff" stroke="#000"/>
                  <text fill="#000000" font-family="Roboto" font-size="16px" letter-spacing="0em" style="white-space:pre" xml:space="preserve">
                        <tspan x="674" y="2444.97">Colocação de barras de apoio em </tspan>
                        <tspan x="674" y="2463.97">ambientes como banheiro e escadas</tspan>
                  </text>
                  <rect x="659.5" y="2493.5" width="321" height="38" rx="9.5" fill="#fff" stroke="#000"/>
                  <text fill="#000000" font-family="Roboto" font-size="16px" letter-spacing="0em" style="white-space:pre" xml:space="preserve">
                        <tspan x="0" y="14">
                              <tspan x="674" y="2517.97"/>
                        </tspan>
                        <tspan x="674" y="2517.97">
                              <tspan x="674" y="2517.97">Colocação de superfícies antideslizantes</tspan>
                        </tspan>
                  </text>
                  <g>
                        <path d="m640.5 2402.5v-51h-3v51zm0-51c0-10.22 8.283-18.5 18.5-18.5v-3c-11.874 0-21.5 9.63-21.5 21.5zm-21.5 72.5c11.874 0 21.5-9.63 21.5-21.5h-3c0 10.22-8.283 18.5-18.5 18.5z"/>
                        <path d="m619 2424h1.5v-3h-1.5zm38.5-37h1.5v-3h-1.5zm-17 17c0-9.39 7.611-17 17-17v-3c-11.046 0-20 8.95-20 20zm-20 20c11.046 0 20-8.95 20-20h-3c0 9.39-7.611 17-17 17z"/>
                        <path d="m619 2424h6.75v-3h-6.75zm33.25 26.5h6.75v-3h-6.75zm-14.75-14.75c0 8.15 6.604 14.75 14.75 14.75v-3c-6.489 0-11.75-5.26-11.75-11.75zm-11.75-11.75c6.489 0 11.75 5.26 11.75 11.75h3c0-8.15-6.604-14.75-14.75-14.75z"/>
                        <path d="m637.5 2442.5v50h3v-50zm0 50c0 11.87 9.626 21.5 21.5 21.5v-3c-10.217 0-18.5-8.28-18.5-18.5zm-18.5-68.5c10.217 0 18.5 8.28 18.5 18.5h3c0-11.87-9.626-21.5-21.5-21.5z"/>
                  </g>
            </g>
      </g>
</svg>
