<?xml version="1.0" encoding="UTF-8"?>
<!-- Created with Inkscape (http://www.inkscape.org/) -->
<svg width="940" height="1497" version="1.1" viewBox="0 0 248.71 396.08"
      xmlns="http://www.w3.org/2000/svg">
      <g transform="translate(-25.242 113.11)">
            <g id="botao-dispositivos" transform="matrix(.26458 0 0 .26458 -75.3 -154.38)">
                  <rect x="380" y="537" width="220" height="72" rx="10" fill="#ffbcc0"/>
                  <text fill="#000000" font-family="Roboto" font-size="18px" letter-spacing="0em" style="white-space:pre" xml:space="preserve">
                        <tspan x="400" y="568.65198">Dispositivos auxiliares </tspan>
                        <tspan x="400" y="589.65198">para locomoção</tspan>
                  </text>
            </g>
            <g id="dispositivos-conteudo" transform="matrix(.26458 0 0 .26458 -75.3 -154.38)">
                  <rect x="1004.5" y="156.5" width="234" height="38" rx="9.5" fill="#fff" stroke="#000"/>
                  <text fill="#000000" font-family="Roboto" font-size="16px" letter-spacing="0em" style="white-space:pre" xml:space="preserve">
                        <tspan x="1019" y="180.96899">Força e resistência muscular</tspan>
                  </text>
                  <rect x="1004.5" y="210.5" width="96" height="38" rx="9.5" fill="#fff" stroke="#000"/>
                  <text fill="#000000" font-family="Roboto" font-size="16px" letter-spacing="0em" style="white-space:pre" xml:space="preserve">
                        <tspan x="1019" y="234.96899">Equilíbrio</tspan>
                  </text>
                  <rect x="1004.5" y="264.5" width="83" height="38" rx="9.5" fill="#fff" stroke="#000"/>
                  <text fill="#000000" font-family="Roboto" font-size="16px" letter-spacing="0em" style="white-space:pre" xml:space="preserve">
                        <tspan x="1019" y="288.96899">Marcha</tspan>
                  </text>
                  <rect x="1004.5" y="318.5" width="151" height="38" rx="9.5" fill="#fff" stroke="#000"/>
                  <text fill="#000000" font-family="Roboto" font-size="16px" letter-spacing="0em" style="white-space:pre" xml:space="preserve">
                        <tspan x="1019" y="342.96899">Função cognitiva</tspan>
                  </text>
                  <rect x="1004.5" y="372.5" width="55" height="38" rx="9.5" fill="#fff" stroke="#000"/>
                  <text fill="#000000" font-family="Roboto" font-size="16px" letter-spacing="0em" style="white-space:pre" xml:space="preserve">
                        <tspan x="1019" y="396.96899">Dor</tspan>
                  </text>
                  <rect x="1004.5" y="426.5" width="172" height="38" rx="9.5" fill="#fff" stroke="#000"/>
                  <text fill="#000000" font-family="Roboto" font-size="16px" letter-spacing="0em" style="white-space:pre" xml:space="preserve">
                        <tspan x="1019" y="450.96899">Ambiente domiciliar</tspan>
                  </text>
                  <rect x="641.5" y="835.5" width="69" height="38" rx="9.5" fill="#fff" stroke="#000"/>
                  <text fill="#000000" font-family="Roboto" font-size="16px" letter-spacing="0em" style="white-space:pre" xml:space="preserve">
                        <tspan x="656" y="859.96899">Tipos</tspan>
                  </text>
                  <rect x="640.5" y="272.5" width="323" height="57" rx="9.5" fill="#fff" stroke="#000"/>
                  <text fill="#000000" font-family="Roboto" font-size="16px" letter-spacing="0em" style="white-space:pre" xml:space="preserve">
                        <tspan x="655" y="296.96899">O que precisamos avaliar para prescrever </tspan>
                        <tspan x="655" y="315.96899">um dispositivo auxiliar de marcha?</tspan>
                  </text>
                  <rect x="750.5" y="519.5" width="87" height="38" rx="9.5" fill="#fff" stroke="#000"/>
                  <text fill="#000000" font-family="Roboto" font-size="16px" letter-spacing="0em" style="white-space:pre" xml:space="preserve">
                        <tspan x="765" y="543.96899">Bengala</tspan>
                  </text>
                  <rect x="750.5" y="598.5" width="90" height="38" rx="9.5" fill="#fff" stroke="#000"/>
                  <text fill="#000000" font-family="Roboto" font-size="16px" letter-spacing="0em" style="white-space:pre" xml:space="preserve">
                        <tspan x="765" y="622.96899">Andador</tspan>
                  </text>
                  <rect x="942.5" y="767.5" width="141" height="38" rx="9.5" fill="#fff" stroke="#000"/>
                  <text fill="#000000" font-family="Roboto" font-size="16px" letter-spacing="0em" style="white-space:pre" xml:space="preserve">
                        <tspan x="957" y="791.96899">Itens adicionais</tspan>
                  </text>
                  <rect x="942.5" y="1532.5" width="116" height="38" rx="9.5" fill="#fff" stroke="#000"/>
                  <text fill="#000000" font-family="Roboto" font-size="16px" letter-spacing="0em" style="white-space:pre" xml:space="preserve">
                        <tspan x="957" y="1556.97">Importância</tspan>
                  </text>
                  <rect x="942.5" y="1144.5" width="148" height="57" rx="9.5" fill="#fff" stroke="#000"/>
                  <text fill="#000000" font-family="Roboto" font-size="16px" letter-spacing="0em" style="white-space:pre" xml:space="preserve">
                        <tspan x="957" y="1168.97">Medidas que </tspan>
                        <tspan x="957" y="1187.97">devem ser feitas</tspan>
                  </text>
                  <rect x="1124.5" y="676.5" width="185" height="38" rx="9.5" fill="#fff" stroke="#000"/>
                  <text fill="#000000" font-family="Roboto" font-size="16px" letter-spacing="0em" style="white-space:pre" xml:space="preserve">
                        <tspan x="1139" y="700.96899">Dispositivo antitombo</tspan>
                  </text>
                  <rect x="1124.5" y="784.5" width="130" height="38" rx="9.5" fill="#fff" stroke="#000"/>
                  <text fill="#000000" font-family="Roboto" font-size="16px" letter-spacing="0em" style="white-space:pre" xml:space="preserve">
                        <tspan x="1139" y="808.96899">Apoio cervical</tspan>
                  </text>
                  <rect x="1124.5" y="730.5" width="192" height="38" rx="9.5" fill="#fff" stroke="#000"/>
                  <text fill="#000000" font-family="Roboto" font-size="16px" letter-spacing="0em" style="white-space:pre" xml:space="preserve">
                        <tspan x="1139" y="754.96899">Almofadas específicas</tspan>
                  </text>
                  <rect x="1124.5" y="838.5" width="192" height="57" rx="9.5" fill="#fff" stroke="#000"/>
                  <text fill="#000000" font-family="Roboto" font-size="16px" letter-spacing="0em" style="white-space:pre" xml:space="preserve">
                        <tspan x="1139" y="862.96899">Cadeiras com sistema </tspan>
                        <tspan x="1139" y="881.96899">de reclínio</tspan>
                  </text>
                  <rect x="1131.5" y="926.5" width="126" height="57" rx="9.5" fill="#fff" stroke="#000"/>
                  <text fill="#000000" font-family="Roboto" font-size="16px" letter-spacing="0em" style="white-space:pre" xml:space="preserve">
                        <tspan x="1146" y="950.96899">Profundidade </tspan>
                        <tspan x="1146" y="969.96899">do assento</tspan>
                  </text>
                  <rect x="1131.5" y="1126.5" width="155" height="38" rx="9.5" fill="#fff" stroke="#000"/>
                  <text fill="#000000" font-family="Roboto" font-size="16px" letter-spacing="0em" style="white-space:pre" xml:space="preserve">
                        <tspan x="1146" y="1150.97">Altura do assento</tspan>
                  </text>
                  <rect x="1131.5" y="1180.5" width="138" height="38" rx="9.5" fill="#fff" stroke="#000"/>
                  <text fill="#000000" font-family="Roboto" font-size="16px" letter-spacing="0em" style="white-space:pre" xml:space="preserve">
                        <tspan x="1146" y="1204.97">Altura do apoio</tspan>
                  </text>
                  <rect x="1131.5" y="1380.5" width="170" height="38" rx="9.5" fill="#fff" stroke="#000"/>
                  <text fill="#000000" font-family="Roboto" font-size="16px" letter-spacing="0em" style="white-space:pre" xml:space="preserve">
                        <tspan x="1146" y="1404.97">Comprimento do pé</tspan>
                  </text>
                  <rect x="1131.5" y="1326.5" width="159" height="38" rx="9.5" fill="#fff" stroke="#000"/>
                  <text fill="#000000" font-family="Roboto" font-size="16px" letter-spacing="0em" style="white-space:pre" xml:space="preserve">
                        <tspan x="1146" y="1350.97">Largura do quadril</tspan>
                  </text>
                  <rect x="1131.5" y="1053.5" width="150" height="57" rx="9.5" fill="#fff" stroke="#000"/>
                  <text fill="#000000" font-family="Roboto" font-size="16px" letter-spacing="0em" style="white-space:pre" xml:space="preserve">
                        <tspan x="1146" y="1077.97">Ângulo de flexão </tspan>
                        <tspan x="1146" y="1096.97">do joelho</tspan>
                  </text>
                  <rect x="1131.5" y="999.5" width="162" height="38" rx="9.5" fill="#fff" stroke="#000"/>
                  <text fill="#000000" font-family="Roboto" font-size="16px" letter-spacing="0em" style="white-space:pre" xml:space="preserve">
                        <tspan x="1146" y="1023.97">Tamanho da perna</tspan>
                  </text>
                  <rect x="1131.5" y="1234.5" width="126" height="76" rx="9.5" fill="#fff" stroke="#000"/>
                  <text fill="#000000" font-family="Roboto" font-size="16px" letter-spacing="0em" style="white-space:pre" xml:space="preserve">
                        <tspan x="1146" y="1258.97">Largura e </tspan>
                        <tspan x="1146" y="1277.97">profundidade </tspan>
                        <tspan x="1146" y="1296.97">do tronco</tspan>
                  </text>
                  <rect x="1099.5" y="1449.5" width="145" height="57" rx="9.5" fill="#fff" stroke="#000"/>
                  <text fill="#000000" font-family="Roboto" font-size="16px" letter-spacing="0em" style="white-space:pre" xml:space="preserve">
                        <tspan x="1114" y="1473.97">Posicionamento </tspan>
                        <tspan x="1114" y="1492.97">do paciente</tspan>
                  </text>
                  <rect x="1099.5" y="1614.5" width="220" height="38" rx="9.5" fill="#fff" stroke="#000"/>
                  <text fill="#000000" font-family="Roboto" font-size="16px" letter-spacing="0em" style="white-space:pre" xml:space="preserve">
                        <tspan x="1114" y="1638.97">Desconfortos respiratórios</tspan>
                  </text>
                  <rect x="1099.5" y="1522.5" width="192" height="76" rx="9.5" fill="#fff" stroke="#000"/>
                  <text fill="#000000" font-family="Roboto" font-size="16px" letter-spacing="0em" style="white-space:pre" xml:space="preserve">
                        <tspan x="1114" y="1546.97">Favorece o surgimento </tspan>
                        <tspan x="1114" y="1565.97">de dores, contraturas </tspan>
                        <tspan x="1114" y="1584.97">e/ou deformidades</tspan>
                  </text>
                  <rect x="751.5" y="1150.5" width="150" height="38" rx="9.5" fill="#fff" stroke="#000"/>
                  <text fill="#000000" font-family="Roboto" font-size="16px" letter-spacing="0em" style="white-space:pre" xml:space="preserve">
                        <tspan x="766" y="1174.97">Cadeira de rodas</tspan>
                  </text>
                  <rect x="881.5" y="588.5" width="324" height="57" rx="9.5" fill="#fff" stroke="#000"/>
                  <text fill="#000000" font-family="Roboto" font-size="16px" letter-spacing="0em" style="white-space:pre" xml:space="preserve">
                        <tspan x="896" y="612.96899">Prescrever o andador sem rodas também </tspan>
                        <tspan x="896" y="631.96899">com intuito de melhorar a estabilidade</tspan>
                  </text>
                  <rect x="878.5" y="500.5" width="274" height="57" rx="9.5" fill="#fff" stroke="#000"/>
                  <text fill="#000000" font-family="Roboto" font-size="16px" letter-spacing="0em" style="white-space:pre" xml:space="preserve">
                        <tspan x="893" y="524.96899">Utilizada do lado oposto ao </tspan>
                        <tspan x="893" y="543.96899">membro de menor força muscular</tspan>
                  </text>
                  <g>
                        <path d="m985.5 281v-85.5h-3v85.5zm0-85.5c0-10.217 8.283-18.5 18.5-18.5v-3c-11.874 0-21.5 9.626-21.5 21.5zm-21.5 107c11.874 0 21.5-9.626 21.5-21.5h-3c0 10.217-8.283 18.5-18.5 18.5z"/>
                        <path d="m985.5 281v-31.5h-3v31.5zm0-31.5c0-10.217 8.283-18.5 18.5-18.5v-3c-11.874 0-21.5 9.626-21.5 21.5zm-21.5 53c11.874 0 21.5-9.626 21.5-21.5h-3c0 10.217-8.283 18.5-18.5 18.5z"/>
                        <path d="m964 302.5h11.25v-3h-11.25zm28.75-17.5h11.25v-3h-11.25zm-7.25 7.25c0-4.004 3.246-7.25 7.25-7.25v-3c-5.661 0-10.25 4.589-10.25 10.25zm-10.25 10.25c5.661 0 10.25-4.589 10.25-10.25h-3c0 4.004-3.246 7.25-7.25 7.25z"/>
                        <path d="m964 302.5h1.75v-3h-1.75zm38.25 36.5h1.75v-3h-1.75zm-19.75-19.75c0 10.908 8.842 19.75 19.75 19.75v-3c-9.251 0-16.75-7.499-16.75-16.75zm-16.75-16.75c9.251 0 16.75 7.499 16.75 16.75h3c0-10.908-8.842-19.75-19.75-19.75z"/>
                        <path d="m982.5 321v50.5h3v-50.5zm0 50.5c0 11.874 9.626 21.5 21.5 21.5v-3c-10.217 0-18.5-8.283-18.5-18.5zm-18.5-69c10.217 0 18.5 8.283 18.5 18.5h3c0-11.874-9.626-21.5-21.5-21.5z"/>
                        <path d="m982.5 321v104.5h3v-104.5zm0 104.5c0 11.874 9.626 21.5 21.5 21.5v-3c-10.217 0-18.5-8.283-18.5-18.5zm-18.5-123c10.217 0 18.5 8.283 18.5 18.5h3c0-11.874-9.626-21.5-21.5-21.5z"/>
                        <path d="m838 540h15.25v-3h-15.25zm24.75-9.5h15.25v-3h-15.25zm-3.25 3.25c0-1.795 1.455-3.25 3.25-3.25v-3c-3.452 0-6.25 2.798-6.25 6.25zm-6.25 6.25c3.452 0 6.25-2.798 6.25-6.25h-3c0 1.795-1.455 3.25-3.25 3.25z"/>
                        <path d="m841 619h19.75v-3h-19.75zm20.25-0.5h19.75v-3h-19.75zm1.25-1.25c0 0.69-0.56 1.25-1.25 1.25v-3c-0.966 0-1.75 0.784-1.75 1.75zm-1.75 1.75c0.967 0 1.75-0.784 1.75-1.75h-3c0-0.69 0.56-1.25 1.25-1.25z"/>
                        <path d="m920.5 1189.5v342h3v-342zm0 342c0 11.87 9.626 21.5 21.5 21.5v-3c-10.217 0-18.5-8.28-18.5-18.5zm-18.5-360.5c10.217 0 18.5 8.28 18.5 18.5h3c0-11.87-9.626-21.5-21.5-21.5z"/>
                        <path d="m1080.5 1531.5v-33.5h-3v33.5zm0-33.5c0-10.22 8.28-18.5 18.5-18.5v-3c-11.87 0-21.5 9.63-21.5 21.5zm-21.5 55c11.87 0 21.5-9.63 21.5-21.5h-3c0 10.22-8.28 18.5-18.5 18.5z"/>
                        <path d="m1059 1553h15.5v-3h-15.5zm24.5 9h15.5v-3h-15.5zm-6-6c0 3.31 2.69 6 6 6v-3c-1.66 0-3-1.34-3-3zm-3-3c1.66 0 3 1.34 3 3h3c0-3.31-2.69-6-6-6z"/>
                        <path d="m1077.5 1571.5v42h3v-42zm0 42c0 11.87 9.63 21.5 21.5 21.5v-3c-10.22 0-18.5-8.28-18.5-18.5zm-18.5-60.5c10.22 0 18.5 8.28 18.5 18.5h3c0-11.87-9.63-21.5-21.5-21.5z"/>
                        <path d="m1112.5 1153v-178h-3v178zm0-178c0-10.217 8.28-18.5 18.5-18.5v-3c-11.87 0-21.5 9.626-21.5 21.5zm-21.5 199.5c11.87 0 21.5-9.63 21.5-21.5h-3c0 10.22-8.28 18.5-18.5 18.5z"/>
                        <path d="m1112.5 1153v-114.5h-3v114.5zm0-114.5c0-10.22 8.28-18.5 18.5-18.5v-3c-11.87 0-21.5 9.63-21.5 21.5zm-21.5 136c11.87 0 21.5-9.63 21.5-21.5h-3c0 10.22-8.28 18.5-18.5 18.5z"/>
                        <path d="m1112.5 1153v-51h-3v51zm0-51c0-10.22 8.28-18.5 18.5-18.5v-3c-11.87 0-21.5 9.63-21.5 21.5zm-21.5 72.5c11.87 0 21.5-9.63 21.5-21.5h-3c0 10.22-8.28 18.5-18.5 18.5z"/>
                        <path d="m1091 1174.5h6.25v-3h-6.25zm33.75-27.5h6.25v-3h-6.25zm-12.25 12.25c0-6.77 5.48-12.25 12.25-12.25v-3c-8.42 0-15.25 6.83-15.25 15.25zm-15.25 15.25c8.42 0 15.25-6.83 15.25-15.25h-3c0 6.77-5.48 12.25-12.25 12.25z"/>
                        <path d="m1091 1174.5h6.75v-3h-6.75zm33.25 26.5h6.75v-3h-6.75zm-14.75-14.75c0 8.15 6.6 14.75 14.75 14.75v-3c-6.49 0-11.75-5.26-11.75-11.75zm-11.75-11.75c6.49 0 11.75 5.26 11.75 11.75h3c0-8.15-6.6-14.75-14.75-14.75z"/>
                        <path d="m1109.5 1193v59.5h3v-59.5zm0 59.5c0 11.87 9.63 21.5 21.5 21.5v-3c-10.22 0-18.5-8.28-18.5-18.5zm-18.5-78c10.22 0 18.5 8.28 18.5 18.5h3c0-11.87-9.63-21.5-21.5-21.5z"/>
                        <path d="m1109.5 1193v132.5h3v-132.5zm0 132.5c0 11.87 9.63 21.5 21.5 21.5v-3c-10.22 0-18.5-8.28-18.5-18.5zm-18.5-151c10.22 0 18.5 8.28 18.5 18.5h3c0-11.87-9.63-21.5-21.5-21.5z"/>
                        <path d="m1109.5 1193v186.5h3v-186.5zm0 186.5c0 11.87 9.63 21.5 21.5 21.5v-3c-10.22 0-18.5-8.28-18.5-18.5zm-18.5-205c10.22 0 18.5 8.28 18.5 18.5h3c0-11.87-9.63-21.5-21.5-21.5z"/>
                        <path d="m902 1171h18.25v-3h-18.25zm21.75 3.5h18.25v-3h-18.25zm-3.25-3.25c0 1.79 1.455 3.25 3.25 3.25v-3c-0.138 0-0.25-0.11-0.25-0.25zm-0.25-0.25c0.138 0 0.25 0.11 0.25 0.25h3c0-1.79-1.455-3.25-3.25-3.25z"/>
                        <path d="m1105.5 766.5v-51h-3v51zm0-51c0-10.217 8.28-18.5 18.5-18.5v-3c-11.87 0-21.5 9.626-21.5 21.5zm-21.5 72.5c11.87 0 21.5-9.626 21.5-21.5h-3c0 10.217-8.28 18.5-18.5 18.5z"/>
                        <path d="m1084 788h1.5v-3h-1.5zm38.5-37h1.5v-3h-1.5zm-17 17c0-9.389 7.61-17 17-17v-3c-11.05 0-20 8.954-20 20zm-20 20c11.05 0 20-8.954 20-20h-3c0 9.389-7.61 17-17 17z"/>
                        <path d="m1084 788h11.5v-3h-11.5zm28.5 17h11.5v-3h-11.5zm-10-10c0 5.523 4.48 10 10 10v-3c-3.87 0-7-3.134-7-7zm-7-7c3.87 0 7 3.134 7 7h3c0-5.523-4.48-10-10-10z"/>
                        <path d="m1102.5 806.5v40.5h3v-40.5zm0 40.5c0 11.874 9.63 21.5 21.5 21.5v-3c-10.22 0-18.5-8.283-18.5-18.5zm-18.5-59c10.22 0 18.5 8.283 18.5 18.5h3c0-11.874-9.63-21.5-21.5-21.5z"/>
                        <path d="m923.5 1149.5v-343h-3v343zm0-343c0-10.217 8.283-18.5 18.5-18.5v-3c-11.874 0-21.5 9.626-21.5 21.5zm-21.5 364.5c11.874 0 21.5-9.63 21.5-21.5h-3c0 10.22-8.283 18.5-18.5 18.5z"/>
                        <path d="m732 835v-198h-3v198zm0-198c0-9.941 8.059-18 18-18v-3c-11.598 0-21 9.402-21 21zm-21 219c11.598 0 21-9.402 21-21h-3c0 9.941-8.059 18-18 18z"/>
                        <path d="m732 835v-277h-3v277zm0-277c0-9.941 8.059-18 18-18v-3c-11.598 0-21 9.402-21 21zm-21 298c11.598 0 21-9.402 21-21h-3c0 9.941-8.059 18-18 18z"/>
                        <path d="m729.5 874.5v275h3v-275zm0 275c0 11.87 9.626 21.5 21.5 21.5v-3c-10.217 0-18.5-8.28-18.5-18.5zm-18.5-293.5c10.217 0 18.5 8.283 18.5 18.5h3c0-11.874-9.626-21.5-21.5-21.5z"/>
                        <path d="m621.5 553v-232h-3v232zm0-232c0-10.217 8.283-18.5 18.5-18.5v-3c-11.874 0-21.5 9.626-21.5 21.5zm-21.5 253.5c11.874 0 21.5-9.626 21.5-21.5h-3c0 10.217-8.283 18.5-18.5 18.5z"/>
                        <path d="m600 574.5h0.5v-3h-0.5zm19 18.5v241.5h3v-241.5zm21.5 263h0.5v-3h-0.5zm-21.5-21.5c0 11.874 9.626 21.5 21.5 21.5v-3c-10.217 0-18.5-8.283-18.5-18.5zm-18.5-260c10.217 0 18.5 8.283 18.5 18.5h3c0-11.874-9.626-21.5-21.5-21.5z"/>
                  </g>
            </g>
      </g>
</svg>
