<?xml version="1.0" encoding="UTF-8"?>
<!-- Created with Inkscape (http://www.inkscape.org/) -->
<svg width="904" height="579" version="1.1" viewBox="0 0 239.18 153.19"
      xmlns="http://www.w3.org/2000/svg">
      <g transform="translate(117.6 -103.23)">
            <g id="botoes-orteses" transform="matrix(.26458 0 0 .26458 -218.14 -344.71)">
                  <rect x="380" y="1931" width="103" height="51" rx="10" fill="#ffbcc0"/>
                  <text fill="#000000" font-family="Roboto" font-size="18px" letter-spacing="0em" style="white-space:pre" xml:space="preserve">
                        <tspan x="400.246" y="1962.65">Órteses</tspan>
                  </text>
            </g>
            <g id="orteses-conteudo" transform="matrix(.26458 0 0 .26458 -218.14 -344.71)">
                  <rect x="826.5" y="1762.5" width="305" height="38" rx="9.5" fill="#fff" stroke="#000"/>
                  <text fill="#000000" font-family="Roboto" font-size="16px" letter-spacing="0em" style="white-space:pre" xml:space="preserve">
                        <tspan x="841" y="1786.97">Órteses como as de apoio mentoniano</tspan>
                  </text>
                  <rect x="826.5" y="1816.5" width="298" height="38" rx="9.5" fill="#fff" stroke="#000"/>
                  <text fill="#000000" font-family="Roboto" font-size="16px" letter-spacing="0em" style="white-space:pre" xml:space="preserve">
                        <tspan x="841" y="1840.97">Órtese cervical tipo colar Philadelphia</tspan>
                  </text>
                  <rect x="1043.5" y="2018.5" width="237" height="38" rx="9.5" fill="#fff" stroke="#000"/>
                  <text fill="#000000" font-family="Roboto" font-size="16px" letter-spacing="0em" style="white-space:pre" xml:space="preserve">
                        <tspan x="1058" y="2042.97">Padrão de marcha fisiológico</tspan>
                  </text>
                  <rect x="1043.5" y="2072.5" width="214" height="38" rx="9.5" fill="#fff" stroke="#000"/>
                  <text fill="#000000" font-family="Roboto" font-size="16px" letter-spacing="0em" style="white-space:pre" xml:space="preserve">
                        <tspan x="1058" y="2096.97">Amenizar risco de quedas</tspan>
                  </text>
                  <rect x="757.5" y="1890.5" width="342" height="38" rx="9.5" fill="#fff" stroke="#000"/>
                  <text fill="#000000" font-family="Roboto" font-size="16px" letter-spacing="0em" style="white-space:pre" xml:space="preserve">
                        <tspan x="772" y="1914.97">Estabilizar o punho e os dedos em extensão</tspan>
                  </text>
                  <rect x="757.5" y="1944.5" width="288" height="38" rx="9.5" fill="#fff" stroke="#000"/>
                  <text fill="#000000" font-family="Roboto" font-size="16px" letter-spacing="0em" style="white-space:pre" xml:space="preserve">
                        <tspan x="772" y="1968.97">Prevenir contraturas e deformidades</tspan>
                  </text>
                  <rect x="757.5" y="2036.5" width="245" height="57" rx="9.5" fill="#fff" stroke="#000"/>
                  <text fill="#000000" font-family="Roboto" font-size="16px" letter-spacing="0em" style="white-space:pre" xml:space="preserve">
                        <tspan x="772" y="2060.97">Órtese AFO (ankle- foot </tspan>
                        <tspan x="772" y="2079.97">orthosis - órtese tornozelo-pé)</tspan>
                  </text>
                  <rect x="757.5" y="2168.5" width="266" height="76" rx="9.5" fill="#fff" stroke="#000"/>
                  <text fill="#000000" font-family="Roboto" font-size="16px" letter-spacing="0em" style="white-space:pre" xml:space="preserve">
                        <tspan x="772" y="2192.97">Órtese do tipo KAFO (knee-ankle-</tspan>
                        <tspan x="772" y="2211.97">foot orthosis - órtese joelho-</tspan>
                        <tspan x="772" y="2230.97">tornozelo-pé) sem cinto pélvico</tspan>
                  </text>
                  <rect x="1064.5" y="2233.5" width="219" height="38" rx="9.5" fill="#fff" stroke="#000"/>
                  <text fill="#000000" font-family="Roboto" font-size="16px" letter-spacing="0em" style="white-space:pre" xml:space="preserve">
                        <tspan x="1079" y="2257.97">Pouca estabilidade pélvica</tspan>
                  </text>
                  <rect x="1064.5" y="2141.5" width="214" height="76" rx="9.5" fill="#fff" stroke="#000"/>
                  <text fill="#000000" font-family="Roboto" font-size="16px" letter-spacing="0em" style="white-space:pre" xml:space="preserve">
                        <tspan x="1079" y="2165.97">Déficit de força de </tspan>
                        <tspan x="1079" y="2184.97">músculos estabilizadores </tspan>
                        <tspan x="1079" y="2203.97">de joelho, tornozelo e pé</tspan>
                  </text>
                  <rect x="717.5" y="1790.5" width="69" height="38" rx="9.5" fill="#fff" stroke="#000"/>
                  <text fill="#000000" font-family="Roboto" font-size="16px" letter-spacing="0em" style="white-space:pre" xml:space="preserve">
                        <tspan x="732" y="1814.97">Tipos</tspan>
                  </text>
                  <rect x="717.5" y="1693.5" width="218" height="38" rx="9.5" fill="#fff" stroke="#000"/>
                  <text fill="#000000" font-family="Roboto" font-size="16px" letter-spacing="0em" style="white-space:pre" xml:space="preserve">
                        <tspan x="732" y="1717.97">Déficit de controle cervical</tspan>
                  </text>
                  <rect x="523.5" y="1742.5" width="152" height="38" rx="9.5" fill="#fff" stroke="#000"/>
                  <text fill="#000000" font-family="Roboto" font-size="16px" letter-spacing="0em" style="white-space:pre" xml:space="preserve">
                        <tspan x="538" y="1766.97">Órteses cervicais</tspan>
                  </text>
                  <rect x="523.5" y="1908.5" width="193" height="57" rx="9.5" fill="#fff" stroke="#000"/>
                  <text fill="#000000" font-family="Roboto" font-size="16px" letter-spacing="0em" style="white-space:pre" xml:space="preserve">
                        <tspan x="538" y="1932.97">Órteses para membros </tspan>
                        <tspan x="538" y="1951.97">superiores (MMSS)</tspan>
                  </text>
                  <rect x="523.5" y="2112.5" width="193" height="57" rx="9.5" fill="#fff" stroke="#000"/>
                  <text fill="#000000" font-family="Roboto" font-size="16px" letter-spacing="0em" style="white-space:pre" xml:space="preserve">
                        <tspan x="538" y="2136.97">Órteses para membros </tspan>
                        <tspan x="538" y="2155.97">inferiores (MMII)</tspan>
                  </text>
                  <g>
                        <path d="m676 1763h0.5v-3h-0.5zm22-21.5v-9h-3v9zm18.5-27.5h0.5v-3h-0.5zm-18.5 18.5c0-10.22 8.283-18.5 18.5-18.5v-3c-11.874 0-21.5 9.63-21.5 21.5zm-21.5 30.5c11.874 0 21.5-9.63 21.5-21.5h-3c0 10.22-8.283 18.5-18.5 18.5z"/>
                        <path d="m676 1763h0.5v-3h-0.5zm19 18.5v8h3v-8zm21.5 29.5h0.5v-3h-0.5zm-21.5-21.5c0 11.87 9.626 21.5 21.5 21.5v-3c-10.217 0-18.5-8.28-18.5-18.5zm-18.5-26.5c10.217 0 18.5 8.28 18.5 18.5h3c0-11.87-9.626-21.5-21.5-21.5z"/>
                        <path d="m787 1811h5.5v-3h-5.5zm33.5-28h5.5v-3h-5.5zm-12.5 12.5c0-6.9 5.596-12.5 12.5-12.5v-3c-8.56 0-15.5 6.94-15.5 15.5zm-15.5 15.5c8.56 0 15.5-6.94 15.5-15.5h-3c0 6.9-5.596 12.5-12.5 12.5z"/>
                        <path d="m787 1811h6.5v-3h-6.5zm32.5 26h6.5v-3h-6.5zm-14.5-14.5c0 8.01 6.492 14.5 14.5 14.5v-3c-6.351 0-11.5-5.15-11.5-11.5zm-11.5-11.5c6.351 0 11.5 5.15 11.5 11.5h3c0-8.01-6.492-14.5-14.5-14.5z"/>
                        <path d="m717 1938.5h6.25v-3h-6.25zm33.75-27.5h6.25v-3h-6.25zm-12.25 12.25c0-6.77 5.485-12.25 12.25-12.25v-3c-8.422 0-15.25 6.83-15.25 15.25zm-15.25 15.25c8.422 0 15.25-6.83 15.25-15.25h-3c0 6.77-5.485 12.25-12.25 12.25z"/>
                        <path d="m717 1938.5h6.75v-3h-6.75zm33.25 26.5h6.75v-3h-6.75zm-14.75-14.75c0 8.15 6.604 14.75 14.75 14.75v-3c-6.489 0-11.75-5.26-11.75-11.75zm-11.75-11.75c6.489 0 11.75 5.26 11.75 11.75h3c0-8.15-6.604-14.75-14.75-14.75z"/>
                        <path d="m738.5 2121v-36h-3v36zm0-36c0-10.22 8.283-18.5 18.5-18.5v-3c-11.874 0-21.5 9.63-21.5 21.5zm-21.5 57.5c11.874 0 21.5-9.63 21.5-21.5h-3c0 10.22-8.283 18.5-18.5 18.5z"/>
                        <path d="m735.5 2161v25.5h3v-25.5zm0 25.5c0 11.87 9.626 21.5 21.5 21.5v-3c-10.217 0-18.5-8.28-18.5-18.5zm-18.5-44c10.217 0 18.5 8.28 18.5 18.5h3c0-11.87-9.626-21.5-21.5-21.5z"/>
                        <path d="m1024 2208h6.5v-3h-6.5zm33.5-27h6.5v-3h-6.5zm-12 12c0-6.63 5.37-12 12-12v-3c-8.28 0-15 6.72-15 15zm-15 15c8.28 0 15-6.72 15-15h-3c0 6.63-5.37 12-12 12z"/>
                        <path d="m1042.5 2226.5v6h3v-6zm0 6c0 11.87 9.63 21.5 21.5 21.5v-3c-10.22 0-18.5-8.28-18.5-18.5zm-18.5-24.5c10.22 0 18.5 8.28 18.5 18.5h3c0-11.87-9.63-21.5-21.5-21.5z"/>
                        <path d="m1003 2066.5h6.25v-3h-6.25zm33.75-27.5h6.25v-3h-6.25zm-12.25 12.25c0-6.77 5.48-12.25 12.25-12.25v-3c-8.42 0-15.25 6.83-15.25 15.25zm-15.25 15.25c8.42 0 15.25-6.83 15.25-15.25h-3c0 6.77-5.48 12.25-12.25 12.25z"/>
                        <path d="m1003 2066.5h6.75v-3h-6.75zm33.25 26.5h6.75v-3h-6.75zm-14.75-14.75c0 8.15 6.6 14.75 14.75 14.75v-3c-6.49 0-11.75-5.26-11.75-11.75zm-11.75-11.75c6.49 0 11.75 5.26 11.75 11.75h3c0-8.15-6.6-14.75-14.75-14.75z"/>
                        <path d="m504.5 1936.5v-155h-3v155zm0-155c0-10.22 8.283-18.5 18.5-18.5v-3c-11.874 0-21.5 9.63-21.5 21.5zm-21.5 176.5c11.874 0 21.5-9.63 21.5-21.5h-3c0 10.22-8.283 18.5-18.5 18.5z"/>
                        <path d="m483 1958h10.25v-3h-10.25zm29.75-19.5h10.25v-3h-10.25zm-8.25 8.25c0-4.56 3.694-8.25 8.25-8.25v-3c-6.213 0-11.25 5.04-11.25 11.25zm-11.25 11.25c6.213 0 11.25-5.04 11.25-11.25h-3c0 4.56-3.694 8.25-8.25 8.25z"/>
                        <path d="m501.5 1976.5v144.5h3v-144.5zm0 144.5c0 11.87 9.626 21.5 21.5 21.5v-3c-10.217 0-18.5-8.28-18.5-18.5zm-18.5-163c10.217 0 18.5 8.28 18.5 18.5h3c0-11.87-9.626-21.5-21.5-21.5z"/>
                  </g>
            </g>
      </g>
</svg>
