<?xml version="1.0" encoding="UTF-8"?>
<svg width="986" height="596" fill="none" version="1.1" viewBox="0 0 986 596"
    xmlns="http://www.w3.org/2000/svg">
    <g id="botao-alrfrs" transform="translate(-567.5,-479.5)">
        <rect x="1238.5" y="616.5" width="315" height="72" rx="10" fill="#96d2e7"/>
        <text x="6.5" y="-51.5" fill="#000000" font-family="Roboto" font-size="18px" letter-spacing="0em" style="white-space:pre" xml:space="preserve">
            <tspan x="1258.5" y="648.15198">Amyotrophic Lateral Sclerosis - </tspan>
            <tspan x="1258.5" y="669.15198">Functional Rating Scale (ALS-FRS)</tspan>
        </text>
    </g>
    <g id="botao-fss" transform="translate(-567.5,-479.5)">
        <rect x="1238.5" y="1024.5" width="264" height="51" rx="10" fill="#96d2e7"/>
        <text x="6.5" y="-51.5" fill="#000000" font-family="Roboto" font-size="18px" letter-spacing="0em" style="white-space:pre" xml:space="preserve">
            <tspan x="1258.79" y="1056.15">Fatigue Severity Scale (FSS) </tspan>
        </text>
    </g>
    <g id="botao-avaliacao" transform="translate(-567.5,-479.5)">
        <rect x="567.5" y="479.5" width="322" height="72" rx="10" fill="#96d2e7"/>
        <text x="6.5" y="-51.5" fill="#000000" font-family="Roboto" font-size="18px" letter-spacing="0em" style="white-space:pre" xml:space="preserve">
            <tspan x="587.5" y="511.15198">Avaliação e o acompanhamento da </tspan>
            <tspan x="587.5" y="532.15198">pessoa com ELA com base na CIF</tspan>
        </text>
    </g>
    <g id="botao-adm" transform="translate(-567.5,-479.5)">
        <rect x="592.5" y="758.5" width="297" height="51" rx="10" fill="#96d2e7"/>
        <text x="6.5" y="-51.5" fill="#000000" font-family="Roboto" font-size="18px" letter-spacing="0em" style="white-space:pre" xml:space="preserve">
            <tspan x="612.539" y="790.15198">Amplitude de Movimento (ADM) </tspan>
        </text>
    </g>
    <g id="botao-fm" transform="translate(-567.5,-479.5)">
        <rect x="724.5" y="963.5" width="165" height="51" rx="10" fill="#96d2e7"/>
        <text x="6.5" y="-51.5" fill="#000000" font-family="Roboto" font-size="18px" letter-spacing="0em" style="white-space:pre" xml:space="preserve">
            <tspan x="744.90503" y="995.15002">Força Muscular</tspan>
        </text>
    </g>
    <g id="botao-postura" transform="translate(-567.5,-479.5)">
        <rect x="786.5" y="601.5" width="103" height="51" rx="10" fill="#96d2e7"/>
        <text x="6.5" y="-51.5" fill="#000000" font-family="Roboto" font-size="18px" letter-spacing="0em" style="white-space:pre" xml:space="preserve">
            <tspan x="806.922" y="633.15198">Postura</tspan>
        </text>
    </g>
    <g transform="translate(-567.5,-479.5)">
        <rect x="929.5" y="659.5" width="269" height="122" rx="10" fill="#5a729a"/>
        <text x="6.5" y="-51.5" fill="#ffffff" font-family="Roboto" font-size="20px" font-weight="500" letter-spacing="0em" style="white-space:pre" xml:space="preserve">
            <tspan x="958.44299" y="692.836">Instrumentos utilizados </tspan>
            <tspan x="985.86499" y="715.836">para avaliação da </tspan>
            <tspan x="954.80103" y="738.836">Fisioterapia motora para </tspan>
            <tspan x="984.13702" y="761.836">pessoas com ELA </tspan>
        </text>
        <g fill="#000">
            <path d="m1220 700.5v-28h-3v28zm0-28c0-10.217 8.28-18.5 18.5-18.5v-3c-11.87 0-21.5 9.626-21.5 21.5zm-21.5 49.5c11.87 0 21.5-9.626 21.5-21.5h-3c0 10.217-8.28 18.5-18.5 18.5z"/>
            <path d="m1217 740.5v289.5h3v-289.5zm0 289.5c0 11.87 9.63 21.5 21.5 21.5v-3c-10.22 0-18.5-8.28-18.5-18.5zm-18.5-308c10.22 0 18.5 8.283 18.5 18.5h3c0-11.874-9.63-21.5-21.5-21.5z"/>
            <path d="m911 700.5v-165h-3v165zm0-165c0-11.874-9.626-21.5-21.5-21.5v3c10.217 0 18.5 8.283 18.5 18.5zm18.5 183.5c-10.217 0-18.5-8.283-18.5-18.5h-3c0 11.874 9.626 21.5 21.5 21.5z"/>
            <path d="m911 700.5v-53.5h-3v53.5zm0-53.5c0-11.874-9.626-21.5-21.5-21.5v3c10.217 0 18.5 8.283 18.5 18.5zm18.5 72c-10.217 0-18.5-8.283-18.5-18.5h-3c0 11.874 9.626 21.5 21.5 21.5z"/>
            <path d="m908 740.5v23.5h3v-23.5zm0 23.5c0 10.217-8.283 18.5-18.5 18.5v3c11.874 0 21.5-9.626 21.5-21.5zm21.5-45c-11.874 0-21.5 9.626-21.5 21.5h3c0-10.217 8.283-18.5 18.5-18.5z"/>
            <path d="m908 740.5v228.5h3v-228.5zm0 228.5c0 10.22-8.283 18.5-18.5 18.5v3c11.874 0 21.5-9.63 21.5-21.5zm21.5-250c-11.874 0-21.5 9.626-21.5 21.5h3c0-10.217 8.283-18.5 18.5-18.5z"/>
        </g>
    </g>
</svg>
