<?xml version="1.0" encoding="UTF-8"?>
<!-- Created with Inkscape (http://www.inkscape.org/) -->
<svg width="1005" height="878" version="1.1" viewBox="0 0 265.91 232.3"
    xmlns="http://www.w3.org/2000/svg">
    <g transform="translate(-101.58 -94.269)">
        <g transform="matrix(.26458 0 0 .26458 -226.11 81.436)">
            <rect x="1238.5" y="616.5" width="315" height="72" rx="10" fill="#96d2e7"/>
            <text x="6.5" y="-51.5" fill="#000000" font-family="Roboto" font-size="18px" letter-spacing="0em" style="white-space:pre" xml:space="preserve">
                <tspan x="1258.5" y="648.15198">Amyotrophic Lateral Sclerosis - </tspan>
                <tspan x="1258.5" y="669.15198">Functional Rating Scale (ALS-FRS)</tspan>
            </text>
        </g>
        <g transform="matrix(.26458 0 0 .26458 -226.11 81.436)">
            <rect x="1773" y="103" width="131" height="38" rx="9.5" fill="#fff" stroke="#000"/>
            <text x="6.5" y="-51.5" fill="#000000" font-family="Roboto" font-size="16px" letter-spacing="0em" style="white-space:pre" xml:space="preserve">
                <tspan x="1787.5" y="127.46899">Função bulbar</tspan>
            </text>
            <rect x="1773" y="304" width="181" height="38" rx="9.5" fill="#fff" stroke="#000"/>
            <text x="6.5" y="-51.5" fill="#000000" font-family="Roboto" font-size="16px" letter-spacing="0em" style="white-space:pre" xml:space="preserve">
                <tspan x="1787.5" y="328.46899">Atividade motora fina</tspan>
            </text>
            <rect x="1773" y="515" width="204" height="38" rx="9.5" fill="#fff" stroke="#000"/>
            <text x="6.5" y="-51.5" fill="#000000" font-family="Roboto" font-size="16px" letter-spacing="0em" style="white-space:pre" xml:space="preserve">
                <tspan x="1787.5" y="539.46899">Atividade motora grossa</tspan>
            </text>
            <rect x="1773" y="706" width="167" height="38" rx="9.5" fill="#fff" stroke="#000"/>
            <text x="6.5" y="-51.5" fill="#000000" font-family="Roboto" font-size="16px" letter-spacing="0em" style="white-space:pre" xml:space="preserve">
                <tspan x="1787.5" y="730.46899">Função respiratória</tspan>
            </text>
            <rect x="1945" y="49" width="59" height="38" rx="9.5" fill="#fff" stroke="#000"/>
            <text x="6.5" y="-51.5" fill="#000000" font-family="Roboto" font-size="16px" letter-spacing="0em" style="white-space:pre" xml:space="preserve">
                <tspan x="1959.5" y="73.469002">Fala</tspan>
            </text>
            <rect x="1945" y="157" width="106" height="38" rx="9.5" fill="#fff" stroke="#000"/>
            <text x="6.5" y="-51.5" fill="#000000" font-family="Roboto" font-size="16px" letter-spacing="0em" style="white-space:pre" xml:space="preserve">
                <tspan x="1959.5" y="181.46899">Deglutição</tspan>
            </text>
            <rect x="1945" y="103" width="98" height="38" rx="9.5" fill="#fff" stroke="#000"/>
            <text x="6.5" y="-51.5" fill="#000000" font-family="Roboto" font-size="16px" letter-spacing="0em" style="white-space:pre" xml:space="preserve">
                <tspan x="1959.5" y="127.46899">Salivação</tspan>
            </text>
            <rect x="1594" y="405" width="138" height="38" rx="9.5" fill="#fff" stroke="#000"/>
            <text x="6.5" y="-51.5" fill="#000000" font-family="Roboto" font-size="16px" letter-spacing="0em" style="white-space:pre" xml:space="preserve">
                <tspan x="1608.5" y="429.46899">Funcionalidade</tspan>
            </text>
            <rect x="1594" y="861" width="247" height="38" rx="9.5" fill="#fff" stroke="#000"/>
            <text x="6.5" y="-51.5" fill="#000000" font-family="Roboto" font-size="16px" letter-spacing="0em" style="white-space:pre" xml:space="preserve">
                <tspan x="1608.5" y="885.46899">Cada pergunta pontua de 0 a 4</tspan>
            </text>
            <rect x="2018" y="451" width="194" height="57" rx="9.5" fill="#fff" stroke="#000"/>
            <text x="6.5" y="-51.5" fill="#000000" font-family="Roboto" font-size="16px" letter-spacing="0em" style="white-space:pre" xml:space="preserve">
                <tspan x="2032.5" y="475.46899">Virar na cama e ajustar </tspan>
                <tspan x="2032.5" y="494.46899">as roupas de cama</tspan>
            </text>
            <rect x="2018" y="578" width="130" height="38" rx="9.5" fill="#fff" stroke="#000"/>
            <text x="6.5" y="-51.5" fill="#000000" font-family="Roboto" font-size="16px" letter-spacing="0em" style="white-space:pre" xml:space="preserve">
                <tspan x="2032.5" y="602.46899">Subir escadas</tspan>
            </text>
            <rect x="2018" y="524" width="98" height="38" rx="9.5" fill="#fff" stroke="#000"/>
            <text x="6.5" y="-51.5" fill="#000000" font-family="Roboto" font-size="16px" letter-spacing="0em" style="white-space:pre" xml:space="preserve">
                <tspan x="2032.5" y="548.46899">Caminhar</tspan>
            </text>
            <rect x="1995" y="323" width="97" height="38" rx="9.5" fill="#fff" stroke="#000"/>
            <text x="6.5" y="-51.5" fill="#000000" font-family="Roboto" font-size="16px" letter-spacing="0em" style="white-space:pre" xml:space="preserve">
                <tspan x="2009.5" y="347.46899">Caligrafia</tspan>
            </text>
            <rect x="1995" y="377" width="165" height="38" rx="9.5" fill="#fff" stroke="#000"/>
            <text x="6.5" y="-51.5" fill="#000000" font-family="Roboto" font-size="16px" letter-spacing="0em" style="white-space:pre" xml:space="preserve">
                <tspan x="2009.5" y="401.46899">Vestuário e higiene</tspan>
            </text>
            <rect x="1981" y="652" width="109" height="38" rx="9.5" fill="#fff" stroke="#000"/>
            <text x="6.5" y="-51.5" fill="#000000" font-family="Roboto" font-size="16px" letter-spacing="0em" style="white-space:pre" xml:space="preserve">
                <tspan x="1995.5" y="676.46899">Respiração</tspan>
            </text>
            <rect x="1882" y="861" width="101" height="38" rx="9.5" fill="#fff" stroke="#000"/>
            <text x="6.5" y="-51.5" fill="#000000" font-family="Roboto" font-size="16px" letter-spacing="0em" style="white-space:pre" xml:space="preserve">
                <tspan x="1896.5" y="885.46899">48 pontos</tspan>
            </text>
            <rect x="1981" y="706" width="99" height="38" rx="9.5" fill="#fff" stroke="#000"/>
            <text x="6.5" y="-51.5" fill="#000000" font-family="Roboto" font-size="16px" letter-spacing="0em" style="white-space:pre" xml:space="preserve">
                <tspan x="1995.5" y="730.46899">Ortopneia</tspan>
            </text>
            <rect x="1981" y="760" width="204" height="38" rx="9.5" fill="#fff" stroke="#000"/>
            <text x="6.5" y="-51.5" fill="#000000" font-family="Roboto" font-size="16px" letter-spacing="0em" style="white-space:pre" xml:space="preserve">
                <tspan x="1995.5" y="784.46899">Insuficiência respiratória</tspan>
            </text>
            <rect x="2024" y="834" width="219" height="38" rx="9.5" fill="#fff" stroke="#000"/>
            <text x="6.5" y="-51.5" fill="#000000" font-family="Roboto" font-size="16px" letter-spacing="0em" style="white-space:pre" xml:space="preserve">
                <tspan x="2038.5" y="858.46899">48 - funcionalidade normal </tspan>
            </text>
            <rect x="2024" y="888" width="189" height="38" rx="9.5" fill="#fff" stroke="#000"/>
            <text x="6.5" y="-51.5" fill="#000000" font-family="Roboto" font-size="16px" letter-spacing="0em" style="white-space:pre" xml:space="preserve">
                <tspan x="2038.5" y="912.46899">0 - incapacidade grave</tspan>
            </text>
            <rect x="1995" y="231" width="227" height="76" rx="9.5" fill="#fff" stroke="#000"/>
            <text x="6.5" y="-51.5" fill="#000000" font-family="Roboto" font-size="16px" letter-spacing="0em" style="white-space:pre" xml:space="preserve">
                <tspan x="2009.5" y="255.46899">Corte de alimentos e </tspan>
                <tspan x="2009.5" y="274.46899">utensílios de manipulação </tspan>
                <tspan x="2009.5" y="293.46899">(com ou sem gastrostomia)</tspan>
            </text>
            <g>
                <path d="m1926 102v-14h-3v14zm0-14c0-10.217 8.28-18.5 18.5-18.5v-3c-11.87 0-21.5 9.626-21.5 21.5zm-21.5 35.5c11.87 0 21.5-9.626 21.5-21.5h-3c0 10.217-8.28 18.5-18.5 18.5z"/>
                <path d="m1904.5 123.5h40v-3h-40z"/>
                <path d="m1923 142v14h3v-14zm0 14c0 11.874 9.63 21.5 21.5 21.5v-3c-10.22 0-18.5-8.283-18.5-18.5zm-18.5-32.5c10.22 0 18.5 8.283 18.5 18.5h3c0-11.874-9.63-21.5-21.5-21.5z"/>
                <path d="m1976 303v-14h-3v14zm0-14c0-10.217 8.28-18.5 18.5-18.5v-3c-11.87 0-21.5 9.626-21.5 21.5zm-21.5 35.5c11.87 0 21.5-9.626 21.5-21.5h-3c0 10.217-8.28 18.5-18.5 18.5z"/>
                <path d="m1954.5 324.5h10.5v-3h-10.5zm29.5 19h10.5v-3h-10.5zm-11-11c0 6.075 4.92 11 11 11v-3c-4.42 0-8-3.582-8-8zm-8-8c4.42 0 8 3.582 8 8h3c0-6.075-4.92-11-11-11z"/>
                <path d="m1973 343v33h3v-33zm0 33c0 11.874 9.63 21.5 21.5 21.5v-3c-10.22 0-18.5-8.283-18.5-18.5zm-18.5-51.5c10.22 0 18.5 8.283 18.5 18.5h3c0-11.874-9.63-21.5-21.5-21.5z"/>
                <path d="m1999 514v-14.5h-3v14.5zm0-14.5c0-10.217 8.28-18.5 18.5-18.5v-3c-11.87 0-21.5 9.626-21.5 21.5zm-21.5 36c11.87 0 21.5-9.626 21.5-21.5h-3c0 10.217-8.28 18.5-18.5 18.5z"/>
                <path d="m1977.5 535.5h15.5v-3h-15.5zm24.5 9h15.5v-3h-15.5zm-6-6c0 3.314 2.69 6 6 6v-3c-1.66 0-3-1.343-3-3zm-3-3c1.66 0 3 1.343 3 3h3c0-3.314-2.69-6-6-6z"/>
                <path d="m1996 554v23h3v-23zm0 23c0 11.874 9.63 21.5 21.5 21.5v-3c-10.22 0-18.5-8.283-18.5-18.5zm-18.5-41.5c10.22 0 18.5 8.283 18.5 18.5h3c0-11.874-9.63-21.5-21.5-21.5z"/>
                <path d="m1962 705v-14h-3v14zm0-14c0-10.217 8.28-18.5 18.5-18.5v-3c-11.87 0-21.5 9.626-21.5 21.5zm-21.5 35.5c11.87 0 21.5-9.626 21.5-21.5h-3c0 10.217-8.28 18.5-18.5 18.5z"/>
                <path d="m1940.5 726.5h40v-3h-40z"/>
                <path d="m1959 745v14h3v-14zm0 14c0 11.874 9.63 21.5 21.5 21.5v-3c-10.22 0-18.5-8.283-18.5-18.5zm-18.5-32.5c10.22 0 18.5 8.283 18.5 18.5h3c0-11.874-9.63-21.5-21.5-21.5z"/>
                <path d="m1841.5 881.5h40v-3h-40z"/>
                <path d="m1983.5 881.5h6.5v-3h-6.5zm33.5-27h6.5v-3h-6.5zm-12 12c0-6.627 5.37-12 12-12v-3c-8.28 0-15 6.716-15 15zm-15 15c8.28 0 15-6.716 15-15h-3c0 6.627-5.37 12-12 12z"/>
                <path d="m1983.5 881.5h6.5v-3h-6.5zm33.5 27h6.5v-3h-6.5zm-15-15c0 8.284 6.72 15 15 15v-3c-6.63 0-12-5.373-12-12zm-12-12c6.63 0 12 5.373 12 12h3c0-8.284-6.72-15-15-15z"/>
                <path d="m1754 404v-262h-3v262zm0-262c0-10.217 8.28-18.5 18.5-18.5v-3c-11.87 0-21.5 9.626-21.5 21.5zm-21.5 283.5c11.87 0 21.5-9.626 21.5-21.5h-3c0 10.217-8.28 18.5-18.5 18.5z"/>
                <path d="m1754 404v-61h-3v61zm0-61c0-10.217 8.28-18.5 18.5-18.5v-3c-11.87 0-21.5 9.626-21.5 21.5zm-21.5 82.5c11.87 0 21.5-9.626 21.5-21.5h-3c0 10.217-8.28 18.5-18.5 18.5z"/>
                <path d="m1751 444v70h3v-70zm0 70c0 11.874 9.63 21.5 21.5 21.5v-3c-10.22 0-18.5-8.283-18.5-18.5zm-18.5-88.5c10.22 0 18.5 8.283 18.5 18.5h3c0-11.874-9.63-21.5-21.5-21.5z"/>
                <path d="m1751 444v261h3v-261zm0 261c0 11.874 9.63 21.5 21.5 21.5v-3c-10.22 0-18.5-8.283-18.5-18.5zm-18.5-279.5c10.22 0 18.5 8.283 18.5 18.5h3c0-11.874-9.63-21.5-21.5-21.5z"/>
                <path d="m1575 632.5v-188.5h-3v188.5zm0-188.5c0-10.217 8.28-18.5 18.5-18.5v-3c-11.87 0-21.5 9.626-21.5 21.5zm-21.5 210c11.87 0 21.5-9.626 21.5-21.5h-3c0 10.217-8.28 18.5-18.5 18.5z"/>
                <path d="m1572 672.5v187.5h3v-187.5zm0 187.5c0 11.874 9.63 21.5 21.5 21.5v-3c-10.22 0-18.5-8.283-18.5-18.5zm-18.5-206c10.22 0 18.5 8.283 18.5 18.5h3c0-11.874-9.63-21.5-21.5-21.5z"/>
            </g>
        </g>
    </g>
</svg>
