<?xml version="1.0" encoding="UTF-8"?>
<!-- Created with Inkscape (http://www.inkscape.org/) -->
<svg width="833" height="77" version="1.1" viewBox="0 0 220.4 20.373"
    xmlns="http://www.w3.org/2000/svg">
    <g transform="translate(-36.966 -270.09)">
        <g transform="matrix(.26458 0 0 .26458 22.017 144.02)">
            <rect x="567.5" y="479.5" width="322" height="72" rx="10" fill="#96d2e7"/>
            <text x="6.5" y="-51.5" fill="#000000" font-family="Roboto" font-size="18px" letter-spacing="0em" style="white-space:pre" xml:space="preserve">
                <tspan x="587.5" y="511.15198">Avaliação e o acompanhamento da </tspan>
                <tspan x="587.5" y="532.15198">pessoa com ELA com base na CIF</tspan>
            </text>
        </g>
        <g transform="matrix(.26458 0 0 .26458 22.017 144.02)">
            <rect x="348" y="487" width="179" height="57" rx="9.5" fill="#fff" stroke="#000"/>
            <text x="6.5" y="-51.5" fill="#000000" font-family="Roboto" font-size="16px" letter-spacing="0em" style="white-space:pre" xml:space="preserve">
                <tspan x="362.5" y="511.46899">Linguagem unificada </tspan>
                <tspan x="362.5" y="530.46899">e padronizada</tspan>
            </text>
            <rect x="57" y="477" width="250" height="76" rx="9.5" fill="#fff" stroke="#000"/>
            <text x="6.5" y="-51.5" fill="#000000" font-family="Roboto" font-size="16px" letter-spacing="0em" style="white-space:pre" xml:space="preserve">
                <tspan x="71.5" y="501.46899">Acompanhamento homogêneo </tspan>
                <tspan x="71.5" y="520.46899">e completo por parte da </tspan>
                <tspan x="71.5" y="539.46899">equipe interdisciplinar</tspan>
            </text>
            <path d="m347.5 514h-19.75v3h19.75zm-20.25-0.5h-19.75v3h19.75zm1.75 1.75c0-0.966-0.784-1.75-1.75-1.75v3c-0.69 0-1.25-0.56-1.25-1.25zm-1.25-1.25c0.69 0 1.25 0.56 1.25 1.25h-3c0 0.966 0.783 1.75 1.75 1.75z"/>
            <path d="m567.5 514h-40v3h40z"/>
        </g>
    </g>
</svg>
