<?xml version="1.0" encoding="UTF-8"?>
<!-- Created with Inkscape (http://www.inkscape.org/) -->
<svg width="712" height="184" version="1.1" viewBox="0 0 188.38 48.683"
    xmlns="http://www.w3.org/2000/svg">
    <g transform="translate(-180.77 -299.62)">
        <g transform="matrix(.26458 0 0 .26458 133.8 61.101)">
            <rect x="724.5" y="963.5" width="165" height="51" rx="10" fill="#96d2e7"/>
            <text x="6.5" y="-51.5" fill="#000000" font-family="Roboto" font-size="18px" letter-spacing="0em" style="white-space:pre" xml:space="preserve">
                <tspan x="744.90503" y="995.15002">Força Muscular</tspan>
            </text>
        </g>
        <g transform="matrix(.26458 0 0 .26458 133.8 61.101)">
            <rect x="558" y="902" width="126" height="38" rx="9.5" fill="#fff" stroke="#000"/>
            <text x="6.5" y="-51.5" fill="#000000" font-family="Roboto" font-size="16px" letter-spacing="0em" style="white-space:pre" xml:space="preserve">
                <tspan x="572.5" y="926.46899">Teste manual</tspan>
            </text>
            <rect x="478" y="1037" width="206" height="38" rx="9.5" fill="#fff" stroke="#000"/>
            <text x="6.5" y="-51.5" fill="#000000" font-family="Roboto" font-size="16px" letter-spacing="0em" style="white-space:pre" xml:space="preserve">
                <tspan x="492.5" y="1061.47">Grau pode variar de 0 a 5</tspan>
            </text>
            <rect x="380" y="955" width="304" height="57" rx="9.5" fill="#fff" stroke="#000"/>
            <text x="6.5" y="-51.5" fill="#000000" font-family="Roboto" font-size="16px" letter-spacing="0em" style="white-space:pre" xml:space="preserve">
                <tspan x="394.5" y="979.46997">Escala de avaliação da força muscular </tspan>
                <tspan x="394.5" y="998.46997">(MRC – Medical Research Council)</tspan>
            </text>
            <rect x="178" y="1028" width="259" height="57" rx="9.5" fill="#fff" stroke="#000"/>
            <text x="6.5" y="-51.5" fill="#000000" font-family="Roboto" font-size="16px" letter-spacing="0em" style="white-space:pre" xml:space="preserve">
                <tspan x="192.5" y="1052.47">Menor o grau de força muscular, </tspan>
                <tspan x="192.5" y="1071.47">maior sua redução</tspan>
            </text>
            <g>
                <path d="m477.5 1054.5h-19.75v3h19.75zm-20.25 0.5h-19.75v3h19.75zm-1.25 1.25c0-0.69 0.56-1.25 1.25-1.25v3c0.966 0 1.75-0.78 1.75-1.75zm1.75-1.75c-0.967 0-1.75 0.78-1.75 1.75h3c0 0.69-0.56 1.25-1.25 1.25z"/>
                <path d="m706 969v-28h-3v28zm0-28c0-11.874-9.626-21.5-21.5-21.5v3c10.217 0 18.5 8.283 18.5 18.5zm18.5 46.5c-10.217 0-18.5-8.28-18.5-18.5h-3c0 11.87 9.626 21.5 21.5 21.5z"/>
                <path d="m724.5 987.5h-17.25v3h17.25zm-22.75-5.5h-17.25v3h17.25zm4.25 4.25c0-2.35-1.903-4.25-4.25-4.25v3c0.69 0 1.25 0.56 1.25 1.25zm1.25 1.25c-0.69 0-1.25-0.56-1.25-1.25h-3c0 2.35 1.903 4.25 4.25 4.25z"/>
                <path d="m703 1009v27h3v-27zm0 27c0 10.22-8.283 18.5-18.5 18.5v3c11.874 0 21.5-9.63 21.5-21.5zm21.5-48.5c-11.874 0-21.5 9.63-21.5 21.5h3c0-10.22 8.283-18.5 18.5-18.5z"/>
            </g>
        </g>
    </g>
</svg>
