<?xml version="1.0" encoding="UTF-8" standalone="no"?>
<!-- Created with Inkscape (http://www.inkscape.org/) -->

<svg
   width="1100"
   height="280"
   viewBox="0 0 291.04166 74.083333"
   version="1.1"
   id="svg984"
   inkscape:version="1.1.2 (1:1.1+202202050950+0a00cf5339)"
   sodipodi:docname="arrows2.svg"
   xmlns:inkscape="http://www.inkscape.org/namespaces/inkscape"
   xmlns:sodipodi="http://sodipodi.sourceforge.net/DTD/sodipodi-0.dtd"
   xmlns="http://www.w3.org/2000/svg"
   xmlns:svg="http://www.w3.org/2000/svg">
  <sodipodi:namedview
     id="namedview986"
     pagecolor="#ffffff"
     bordercolor="#666666"
     borderopacity="1.0"
     inkscape:pageshadow="2"
     inkscape:pageopacity="0.0"
     inkscape:pagecheckerboard="0"
     inkscape:document-units="mm"
     showgrid="false"
     inkscape:zoom="0.68284215"
     inkscape:cx="449.59146"
     inkscape:cy="377.10033"
     inkscape:window-width="1366"
     inkscape:window-height="703"
     inkscape:window-x="0"
     inkscape:window-y="0"
     inkscape:window-maximized="1"
     inkscape:current-layer="layer1"
     units="px" />
  <defs
     id="defs981" />
  <g
     inkscape:label="Camada 1"
     inkscape:groupmode="layer"
     id="layer1">
    <path
       d="M 0.5291669,0 V 0 H 2.4e-7 V 0 Z M 0.26458357,72.555893 H 2.4e-7 v 0.264584 h 0.26458333 z m 117.47499643,0 -2.64583,-1.527439 v 3.054879 z M 2.4e-7,0 V 72.555893 H 0.5291669 V 0 Z M 0.26458357,72.820477 H 115.35833 V 72.29131 H 0.26458357 Z"
       fill="#0044f3"
       id="path42"
       style="stroke-width:0.264583"
       sodipodi:nodetypes="cccccccccccccccccccccccc" />
    <path
       d="m 145.78528,29.897916 v -0.264583 h -0.52917 v 0.264583 z m -0.26458,33.866667 1.5277,-2.645834 h -3.05514 z m -0.26459,-33.866667 v 31.485417 h 0.52917 V 29.897916 Z"
       fill="#0044f3"
       id="path50"
       style="stroke-width:0.264583" />
    <path
       d="m 216.6284,6.8902792 0.17409,-0.1992313 -0.3982,-0.3484562 -0.17436,0.1989667 z m -50.20549,56.9756388 2.8919,-0.985308 -2.29923,-2.011892 z m 49.80702,-57.3243596 -48.43806,55.3579766 0.3982,0.348456 48.43833,-55.3577118 z"
       fill="#0044f3"
       id="path52"
       style="stroke-width:0.264583" />
    <path
       d="m 290.79296,31.193846 0.24871,-0.08969 -0.17992,-0.497946 -0.24871,0.08969 z m -118.35871,42.348943 3.00699,0.540544 -1.03531,-2.874434 z M 290.61304,30.6959 174.58505,72.486837 l 0.17912,0.497946 116.02879,-41.790937 z"
       fill="#0044f3"
       id="path54"
       style="stroke-width:0.264583" />
    <path
       d="m 91.935034,46.86247 -0.233362,-0.124618 -0.249237,0.466725 0.233362,0.124618 z m 31.096216,16.902113 -1.61449,-2.593711 -1.43907,2.695046 z M 91.685797,47.329195 120.8061,62.876376 121.05534,62.409651 91.935034,46.86247 Z"
       fill="#0044f3"
       id="path56"
       style="stroke-width:0.264583" />
  </g>
</svg>
